<?xml version="1.0" ?><svg xmlns="http://www.w3.org/2000/svg" width="276.13446mm" height="235.01715mm" viewBox="0 0 276.13446 235.01715">
    <path d="m 841.43054,-546.70265 -262.63358,0.0723 c 0,0 -5.69848,46.69416 -5.85908,56.19192 -0.1606,9.49777 3.3308,15.52855 7.78506,16.32303 4.45399,0.79449 12.76046,-4.55011 12.76046,-4.55011 l 0.23254,16.36593 c -1.37432,21.18956 -1.59426,34.68643 -2.5864,56.72677 l 0.26716,84.39692 241.04524,1.156 7.82485,-2.49184 2.96932,-217.83528 z" fill="#FFFFFF" paint-order="fill markers stroke" transform="translate(245.03756,62.135698) translate(-815.01739,490.02057)"/>
    <path d="m 708.05625,-552.15554 c -39.73931,-0.0135 -77.07937,0.15842 -86.41901,0.71003 -15.55378,0.91863 -28.36448,1.44638 -36.40347,1.92133 -7.89652,0.47276 -10.71708,0.37742 -10.8567,10.93783 -0.7933,7.77222 -2.36355,25.10547 -3.05201,29.50208 -1.54592,9.87086 -1.73621,16.41038 -0.6904,23.7355 1.02775,7.19827 4.35772,11.48926 8.37159,13.11135 4.1311,1.61994 8.18186,0.42421 12.78475,-2.17145 -0.0179,1.99919 -0.19476,5.52309 -0.21343,8.48011 l -0.0439,0.0506 c -0.38891,23.71219 -1.93536,47.39209 -2.00143,70.98378 -0.95204,16.47018 -1.17284,69.18408 -0.30334,72.45914 0.61786,2.32728 1.05876,2.57475 5.64461,3.16932 2.73575,0.3546 55.40974,0.74791 117.05333,0.87385 61.6436,0.12589 110.89376,0.73834 112.66392,0.82734 5.66286,0.28454 13.73429,1.1405 16.93333,-0.87024 2.07909,-1.20092 2.03003,-3.52431 2.07843,-4.29017 0.52633,-8.2661 0.72141,-42.43036 0.32711,-57.34896 -0.27718,-10.48669 0.18951,-49.15057 1.04541,-86.66964 1.7778,-77.89567 2.22379,-78.61746 -4.33203,-82.73345 -3.14087,-1.97202 -3.40915,-1.99135 -31.77015,-2.27583 -18.9383,-0.18996 -61.07728,-0.38903 -100.81659,-0.40256 z m -63.03801,6.0942 -0.56017,27.01799 -0.55966,27.01747 -2.64222,0.39791 c -1.45318,0.21886 -5.69747,0.56505 -9.43146,0.76946 l -6.78925,0.37207 -0.57361,-17.79064 c -0.31548,-9.7845 -0.46541,-22.04979 -0.3297,-27.25622 l 0.24443,-9.46609 h 2.81585 c 1.54867,0 6.19304,-0.2386 10.32082,-0.53072 z m 2.93987,0.22066 h 9.58391 9.58391 l -1.00614,26.25421 c -0.55312,14.43816 -1.1569,26.39828 -1.34152,26.5808 -0.18451,0.18018 -4.0945,0.53474 -8.68836,0.78755 l -8.35246,0.45941 -0.0842,-19.18333 c -0.0462,-10.55088 0.004,-22.71945 0.11059,-27.04124 z m 21.75888,0 h 11.83959 11.83958 l -0.0424,3.99717 c -0.0233,2.19826 -0.21774,13.89188 -0.43202,25.98601 l -0.38964,21.98936 -4.97489,0.51934 -0.001,-5.1e-4 c -2.73607,0.2857 -8.14076,0.51986 -12.01064,0.51986 h -7.03626 l 0.70745,-4.83846 c 0.98477,-6.72942 1.36074,-21.97345 0.894,-36.18229 z m 26.05991,0 h 11.51402 11.51403 l -0.83406,5.25911 c -0.45867,2.89244 -0.93765,14.63053 -1.06505,26.08471 l -0.23203,20.82612 h -10.08569 -10.0862 l -0.0362,-19.98431 c -0.0201,-10.99143 -0.18343,-22.72992 -0.36277,-26.08523 z m 25.59533,0 h 9.6113 9.61079 l -0.67593,8.20415 c -0.37175,4.51224 -1.25411,15.93166 -1.96061,25.37623 -0.70633,9.44455 -1.48935,17.49074 -1.73994,17.88056 h -5.2e-4 c -0.25052,0.38989 -3.97864,0.709 -8.28476,0.709 h -7.8295 l 0.13074,-21.40696 c 0.0724,-11.77365 0.35802,-23.51173 0.63511,-26.08472 z m 21.24884,0 h 11.78016 11.78015 l -0.91777,25.24342 c -0.66493,18.29407 -0.65727,25.24393 0.0279,25.24393 2.49964,0 3.10447,-4.69681 3.54655,-27.55749 l 0.44338,-22.92935 h 9.71311 9.7131 l -1.05989,23.77065 c -0.58289,13.07397 -1.34233,24.62277 -1.68775,25.66406 -0.62449,1.88184 -0.73705,1.89386 -18.62367,1.99833 -9.89758,0.0577 -19.92643,0.15284 -22.28598,0.21084 -2.3596,0.0579 -4.42527,-0.12237 -4.5899,-0.39998 -0.16474,-0.27761 0.18898,-4.06413 0.78549,-8.41447 0.59639,-4.35031 1.14938,-15.76687 1.22938,-25.37003 z m 48.27664,0 h 11.90004 11.90057 l -0.49816,2.31407 c -0.5001,2.32183 -2.15958,29.07686 -2.60966,42.07237 l -0.24081,6.94169 h -10.66705 c -5.86688,0 -10.84363,-0.18093 -11.05928,-0.40204 -0.21567,-0.2212 0.004,-3.15559 0.48731,-6.52105 0.48368,-3.36553 0.85853,-14.73346 0.83303,-25.26203 z m 27.6412,0.077 c 1.81359,-0.01 5.90923,0.1336 10.5792,0.38138 l 11.32127,0.60048 0.4284,3.04684 c 0.57357,4.08346 -0.23834,36.38729 -1.079,42.89196 h 5.1e-4 l -0.66817,5.17229 h -11.99824 -11.99771 l 1.0883,-25.87439 c 0.5985,-14.23097 1.19963,-26.00174 1.33584,-26.15654 0.0341,-0.0387 0.38507,-0.0589 0.9896,-0.062 z m -196.20663,0.55759 -0.59738,11.25255 c -0.32841,6.189 -0.36014,18.06501 -0.0708,26.39115 0.43145,12.41144 0.31902,15.34104 -0.62425,16.26154 -0.75985,0.74154 -4.45257,1.28502 -10.87531,1.60094 l -9.72499,0.47852 0.35605,-27.25777 c 0.19584,-14.99178 0.37044,-27.31877 0.38654,-27.39367 0.0166,-0.0748 4.78205,-0.40558 10.59006,-0.73484 z m -23.82593,0.9307 -0.95136,17.51882 c -0.52341,9.63541 -1.06859,21.91089 -1.2113,27.27896 l -0.25993,9.76064 -8.6372,0.49041 c -4.74997,0.26984 -9.30486,0.74623 -10.12238,1.05834 -1.29059,0.49277 -1.47211,0.0286 -1.38441,-3.51917 0.0562,-2.2478 0.76407,-7.30537 1.57303,-11.23911 0.809,-3.93381 1.88814,-14.72561 2.3983,-23.98148 l 0.92759,-16.82895 8.83409,-0.26923 z m 199.95989,53.97035 c 6.13724,0 9.66892,0.31997 9.65522,0.87488 -0.0441,1.78503 -3.61166,7.51255 -5.20278,8.35298 -2.86684,1.51428 -7.99335,1.03932 -10.06089,-0.93225 -1.60156,-1.52722 -4.11603,-6.36433 -4.07933,-7.84758 0.006,-0.2462 4.36558,-0.44803 9.68778,-0.44803 z m -71.62922,0.001 c 3.93764,0 7.32435,0.28387 7.52615,0.63097 0.20194,0.3471 -0.42831,2.62397 -1.40043,5.05964 -1.98329,4.96928 -5.24217,7.42889 -7.86825,5.93865 -1.36438,-0.7742 -3.49168,-5.03226 -4.86431,-9.73635 -0.54335,-1.86176 -0.43426,-1.89291 6.60684,-1.89291 z m 25.32352,0 c 10.4394,0 11.28719,0.11586 10.75334,1.47226 -1.36856,3.47684 -4.82062,7.83048 -7.15356,9.02167 -3.2439,1.65647 -7.61871,1.64257 -9.96735,-0.0315 -1.98389,-1.41413 -5.05023,-7.03875 -4.99763,-9.16688 0.0272,-1.10246 1.72195,-1.29553 11.3652,-1.29553 z m 23.95099,0 c 4.65916,0 8.4665,0.17516 8.4615,0.38912 -0.005,0.21405 -0.84842,2.49133 -1.87327,5.06068 -1.32694,3.32663 -2.56828,5.03131 -4.31189,5.9216 -1.34676,0.68762 -2.5612,1.22642 -2.69906,1.19682 -3.41275,-0.7257 -5.67379,-3.93187 -7.52822,-10.67531 -0.51577,-1.87656 -0.44117,-1.89291 7.95094,-1.89291 z m -68.03306,0.11782 c 3.31264,-0.0237 5.91688,0.0629 6.35724,0.23358 1.5266,0.59139 -2.06857,8.49289 -4.83537,10.62777 -2.62112,2.02233 -4.03723,2.0531 -7.72666,0.16847 -3.0459,-1.55599 -5.46688,-5.12685 -5.84615,-8.62325 l -0.22841,-2.10374 8.78447,-0.24133 c 1.20783,-0.0333 2.39067,-0.0536 3.49488,-0.0615 z m -19.96932,0.63459 c 0.84975,0.006 1.56558,0.0193 2.09238,0.0413 2.70342,0.11309 -1.73969,9.45219 -5.62085,11.81478 -1.53257,0.93293 -2.92953,1.6445 -3.10472,1.5813 -0.17528,-0.063 -1.19655,-0.28247 -2.26911,-0.48783 -3.43515,-0.65757 -11.46042,-10.81354 -9.81439,-12.41991 0.25305,-0.24693 12.76843,-0.57075 18.71669,-0.52968 z m 126.06052,0.0879 9.38651,0.0594 c 5.16233,0.0326 10.0612,0.32807 10.88615,0.6568 1.36759,0.54499 1.26687,0.9087 -1.13739,4.1181 -1.4504,1.93612 -3.77611,4.10132 -5.16816,4.81211 -5.83477,2.97916 -11.1619,0.29359 -13.1098,-6.6089 z m -151.26312,0.16846 c 0.61346,-0.0151 1.12585,-0.0141 1.49758,0.006 0.42484,0.0226 0.66596,0.0702 0.66405,0.14779 -0.044,1.77953 -3.86353,8.2034 -5.73712,9.64903 v 5.1e-4 c -2.93589,2.26474 -3.85188,2.26274 -6.69055,-0.0145 -2.50622,-2.01047 -4.97024,-7.29356 -3.86126,-8.27908 0.58841,-0.52292 9.83308,-1.40374 14.1273,-1.50947 z m -21.65759,0.94206 c 2.17822,0.0226 2.75571,0.30225 2.7404,0.92036 -0.0612,2.47467 -3.49749,8.72118 -5.75675,10.46448 -3.02573,2.33461 -6.52692,2.30306 -9.17826,-0.0827 -2.45174,-2.2063 -4.89206,-9.81138 -3.3016,-10.2893 0.54586,-0.16408 4.87905,-0.52127 9.62938,-0.79375 2.67675,-0.15353 4.5599,-0.23268 5.86683,-0.21911 z m -30.78985,1.4149 c 8.1313,0 9.22795,0.16704 8.75243,1.33119 -0.29892,0.73206 -0.55174,1.67759 -0.56224,2.10116 -0.0105,0.42366 -1.4261,2.28571 -3.14554,4.13825 -5.07146,5.46401 -9.23604,4.41811 -14.08286,-3.53673 -0.7631,-1.25238 -1.13326,-2.67227 -0.82269,-3.15537 0.33716,-0.52456 4.31,-0.8785 9.8609,-0.8785 z m -25.94416,0.27441 c 4.761,0.008 10.63791,0.55556 10.62261,1.17409 -0.0222,0.89921 -3.7067,4.84575 -6.23218,6.67556 -4.97578,3.60528 -9.54098,2.05512 -11.87937,-4.03387 l -1.17564,-3.06182 4.53512,-0.56483 c 1.07942,-0.13444 2.54248,-0.19183 4.12946,-0.18913 z m 153.97614,0.60461 1.63969,4.32067 c 2.09056,5.51019 4.85431,7.60881 10.55853,8.01656 5.47426,0.39134 10.2038,-1.99903 13.43174,-6.78821 1.28242,-1.90282 2.28439,-2.74777 2.46755,-2.08101 1.64893,6.00142 5.01038,9.11624 9.83764,9.11624 3.65175,0 7.84437,-3.24583 9.55084,-7.39438 l 1.48414,-3.60805 1.34876,2.98276 c 2.56264,5.66757 9.45244,7.85411 16.09359,5.1077 2.26462,-0.93661 3.48026,-2.27108 5.10925,-5.60896 2.12663,-4.35763 2.14016,-4.36747 2.65668,-1.9265 1.5544,7.34526 7.59817,11.43365 14.2658,9.65006 4.25088,-1.13709 8.1065,-4.19628 9.61233,-7.62693 0.62005,-1.41262 1.2776,-2.41493 1.4609,-2.22673 0.18332,0.188 -0.10059,16.95581 -0.63097,37.26129 -0.5303,20.30555 -0.74221,43.35628 -0.47078,51.22374 0.60243,17.45887 1.19629,52.49602 1.08366,63.95011 l -0.0605,6.10247 c -0.0213,2.16366 0.53321,2.38869 -1.61541,2.37039 -3.64474,0.135 -7.28639,0.26312 -10.9337,0.0408 l 0.5023,-22.12217 c 0.27626,-12.16704 0.41201,-25.15116 0.30127,-28.85353 -0.11024,-3.7024 -0.1076,-23.39251 0.007,-43.75547 0.11429,-20.36303 0.56009,-39.80234 0.23771,-40.56497 -0.49005,-1.1594 -3.86186,-1.09337 -14.53193,-1.58801 -19.17658,-0.88901 -49.56393,-0.42047 -50.94469,0.93017 -2.12824,2.08165 -1.18088,61.91092 -0.56793,105.90155 0.12037,8.63857 0.61935,16.71729 0.79582,28.83493 -2.37772,0 -3.22814,-0.14366 -5.60586,-0.14366 l -0.80874,-10.72854 c -0.44502,-5.90064 -0.80278,-17.35485 -0.79478,-25.45375 0.0188,-18.8557 -0.75364,-44.58781 -0.75964,-60.16325 -0.009,-21.34622 -0.0916,-38.9973 0.005,-43.6857 0.097,-4.66548 -4.14139,-5.44962 -4.82657,0.32762 -0.64514,5.43967 -0.3572,35.82361 -0.2651,41.91424 0.0637,4.21208 0.17574,4.33856 -4.23385,4.38836 H 728.19042 708.7451 l 0.0661,-3.15536 c 0.21743,-10.55454 -1.93384,-30.83284 -1.75596,-40.94685 0.10042,-5.71027 -2.21691,-5.14805 -2.69493,-5.30872 -1.42771,-0.47988 -2.09112,6.26243 -1.50895,15.33239 0.29706,4.62794 0.4549,20.40686 0.62167,27.39937 0.14033,5.88437 1.04879,6.5497 -5.3852,6.3872 -7.27858,-0.18383 -34.65323,1.16901 -51.43252,1.66347 l -30.88008,0.91 c -4.57834,-0.0736 -4.36125,-1.46963 -4.23798,-9.17515 0.14703,-9.1905 -0.2019,-27.40375 -0.2744,-34.78651 -0.0516,-5.25234 -3.83682,-6.97714 -4.89479,-3.22254 -1.3845,5.06695 -0.58258,20.22498 -1.45469,55.50358 -1.36172,55.08295 -0.17504,58.24344 1.47691,58.64552 0.92008,0.22397 30.70672,-0.93731 59.39461,-0.71931 19.97758,0.13647 45.0239,-0.37164 70.03862,0.40359 l 13.21314,0.0682 0.3483,2.73472 c 0.19154,1.50406 0.54717,6.98471 0.79014,12.17962 l 0.44131,9.44542 -2.49855,0.54622 c -1.37448,0.30047 -24.28608,0.40391 -50.91472,0.23099 l -10e-4,5.2e-4 c -26.62852,-0.17297 -60.76438,-0.0321 -75.85738,0.31367 l -27.44226,0.62891 -0.12402,-16.1954 c 1.75189,-55.35303 1.60445,-88.36722 2.13631,-129.44016 0.0776,-5.9936 -0.52314,-8.17799 0.66249,-9.79062 0.75485,-1.02671 1.57062,-1.87912 1.81281,-1.89342 0.24218,-0.0145 1.15335,1.36088 2.02468,3.05666 4.29976,8.36837 15.16537,8.17855 21.13721,-0.36949 l 1.89704,-2.71611 1.52239,3.07992 c 4.10981,8.31548 15.61151,7.66492 20.35225,-1.15084 l 1.6061,-2.98638 1.72651,2.9099 c 1.9262,3.24656 4.76919,4.88136 8.48785,4.88136 2.77843,0 8.87801,-4.80097 9.90172,-7.79333 0.57173,-1.67113 0.67484,-1.63137 1.80196,0.6966 2.76623,5.71303 8.13509,9.62112 13.2178,9.62112 3.4299,0 8.64944,-3.83947 10.47636,-7.70651 l 1.57407,-3.33209 1.62264,2.87062 c 2.11149,3.73529 8.27516,6.86461 12.10985,6.14846 3.96206,-0.7398 6.28948,-2.62186 8.59586,-6.94944 l 2.02933,-3.80649 0.95705,3.48299 c 0.64964,2.36347 1.80846,4.0216 3.60495,5.15834 4.96515,3.142 10.39401,0.54947 13.45757,-6.42596 z m -82.80787,22.03845 c -5.44773,-0.002 -11.00044,0.17644 -12.7062,0.5364 -1.93028,0.40738 -2.61148,1.05979 -2.84634,2.72593 -0.29434,2.08801 -0.60664,2.21534 -6.67814,2.72748 -3.50295,0.29552 -5.60169,0.29996 -8.5292,0.36536 -3.43019,0.0767 -2.13266,2.93083 -2.54248,7.50652 l -0.43563,11.31507 -0.0935,15.93236 c -0.1621,4.05316 3.67111,4.63545 7.26623,4.58525 5.10263,-0.82206 28.30326,-2.25826 34.82526,-2.15594 8.51097,0.13367 26.07294,-1.07117 26.85986,-1.84278 0.71473,-0.70083 -0.40505,-25.66411 -1.36477,-30.42864 -1.43738,-7.13478 -2.01954,-3.91649 -2.11977,11.71505 -0.0926,14.42987 -0.26146,16.36592 -1.42472,16.36592 -1.16018,0 -1.24833,-1.99741 -0.73381,-16.47082 0.69361,-19.51074 0.7548,-19.3648 -7.67911,-18.40353 -3.36445,0.38344 -4.77908,0.28309 -4.39612,-0.31264 0.31058,-0.48327 0.22787,-1.08998 -0.18345,-1.34824 -1.37782,-0.8647 -1.84756,3.18931 -2.42879,20.96874 -0.52188,15.95964 -0.62299,16.8556 -1.04593,9.25577 -0.25764,-4.62795 -0.27702,-13.70269 -0.0439,-20.16621 l 0.31368,-8.67492 c 0.10476,-2.89968 0.94685,-2.98913 -1.93735,-3.65249 -1.28511,-0.36018 -6.62802,-0.54195 -12.07575,-0.54364 z m 64.55265,2.36265 c -1.69,0.0491 -3.37534,0.54174 -4.49998,1.43608 -2.44526,1.94475 -4.07268,11.15421 -3.30833,18.72186 0.51515,5.10034 0.73469,5.55098 3.25717,6.67349 2.54781,1.13369 2.69873,1.45532 2.59777,5.5392 -0.059,2.38477 0.13887,4.58838 0.43977,4.89686 0.30092,0.30855 1.08592,0.5612 1.74408,0.5612 0.93301,0 1.16104,-1.11141 1.03611,-5.05033 -0.14676,-4.62339 -0.0144,-5.04879 1.56476,-5.04879 3.19709,0.003 3.78607,-1.59233 4.00906,-10.89546 0.24164,-9.98692 -0.6378,-14.76697 -2.94659,-16.01918 -0.90246,-0.48948 -2.01887,-0.75492 -3.17087,-0.80873 -0.24,-0.0112 -0.48152,-0.0132 -0.72295,-0.006 z m -68.7002,0.85317 c 4.97432,0.0267 10.45402,0.31056 12.17703,0.63097 3.65987,0.68062 3.19404,-0.17651 3.10524,3.6711 l -0.12144,13.74024 c -0.0819,9.25593 0.13746,17.49185 0.48731,18.30173 0.55957,1.29481 0.1329,1.47226 -3.5357,1.47226 h -4.17184 l -0.35708,-11.56984 c -0.58826,-19.07914 -0.83265,-20.61294 -3.39928,-21.29999 -1.20998,-0.32357 -2.66653,-0.30505 -3.23649,0.0419 -0.67957,0.41367 -0.2938,0.81838 1.12086,1.17564 2.58964,0.654 2.61108,0.75804 3.41271,16.507 0.73746,14.48772 0.72991,15.14585 -0.1726,15.14585 -0.69565,0 -2.19621,-19.1161 -2.03037,-25.82478 0.0486,-1.93954 -0.34482,-3.79862 -0.87436,-4.13102 -0.72582,-0.45545 -0.915,3.15954 -0.7674,14.67611 0.10751,8.4038 0.0482,15.27917 -0.13281,15.27917 -0.60193,0 -1.40377,-8.68855 -2.01899,-21.87722 l -0.416,-8.91987 c -0.23225,-4.97938 0.90575,-4.06931 -4.18269,-4.37906 -2.80182,-0.18003 -3.98158,-0.619 -3.96048,-1.47278 0.0244,-0.988 1.72581,-1.20717 9.07438,-1.16737 z m 68.0868,2.21796 c 0.33405,-10e-4 0.67652,0.0213 1.00924,0.0703 2.95435,0.43506 3.24611,1.40128 3.68195,12.17858 l 0.33176,8.20363 h -4.3341 -4.33462 l 0.23513,-9.50794 c 0.13253,-5.36183 0.6202,-9.88384 1.11776,-10.3694 0.36396,-0.35519 1.29072,-0.57181 2.29288,-0.57515 z m -43.67847,1.00872 c 0.98278,0.005 2.35766,0.24417 4.28449,0.63149 l 2.68976,0.54053 -0.72347,15.84555 c -0.39803,8.71489 -0.8955,15.99206 -1.10484,16.17214 -0.2096,0.17998 -1.96179,0.52804 -3.89382,0.77359 -4.20463,0.53429 -4.11027,0.77431 -4.14187,-10.52235 l -0.0227,-8.20415 h 2.43138 c 2.6466,0 6.79094,-2.37886 4.49947,-2.58279 -0.69269,-0.0613 -2.49151,-0.0448 -3.99769,0.0377 -1.5061,0.0824 -2.72841,-0.25772 -2.71611,-0.75602 0.0123,-0.49823 1.53723,-0.90589 3.38842,-0.90589 2.43088,0 3.37419,-0.35094 3.39669,-1.26246 0.0225,-0.91157 -0.90328,-1.26194 -3.33416,-1.26194 h -3.3662 l 0.10438,-4.20749 c 0.0787,-3.18322 0.34418,-4.30836 2.50631,-4.29793 z m 59.70281,1.21181 c -3.54764,0.0846 -7.04672,2.93204 -7.23986,6.89105 -0.24818,5.08651 5.06298,22.29585 7.59695,25.4429 1.44329,1.79232 2.45375,0.0388 4.34134,-7.53339 3.60811,-14.4743 3.57849,-19.52461 -0.13643,-23.04821 -1.32675,-1.25843 -2.94942,-1.79082 -4.562,-1.75235 z m -108.95769,1.30793 c 0.43022,-10e-4 0.93999,0.0313 1.54306,0.0956 h 8.39691 8.85372 c 3.90272,0 3.37341,-0.86436 3.39411,3.16932 l 0.15968,9.24181 c 0.11807,6.82628 0.43067,13.83151 0.69453,15.56701 0.44889,2.95219 0.34458,3.15536 -1.61954,3.15536 -1.85135,0 -2.14991,-0.44866 -2.52646,-3.8008 -0.23483,-2.09059 -1.0078,-4.98102 -1.71773,-6.42286 -0.98983,-2.01013 -1.04788,-2.76938 -0.24908,-3.25562 0.57299,-0.34879 1.12122,-2.18947 1.21802,-4.0907 0.30878,-6.06296 -6.08836,-10.4269 -10.0273,-6.8399 -2.32238,2.11497 -2.5029,4.77857 -0.50539,7.46208 1.42729,1.91814 1.42247,2.08727 -0.14315,5.01623 -1.0092,1.88804 -1.66531,4.83473 -1.73891,7.81245 -0.0886,3.58308 -0.45479,4.90839 -1.46193,5.29115 -1.24825,0.44144 -4.14978,0.85489 -5.39657,-0.12041 0.14524,-5.69917 -0.26108,-22.93964 -0.63458,-26.92601 -0.34708,-3.70372 -1.25086,-5.34664 1.76061,-5.35471 z m 141.0069,1.45883 c 1.80083,-0.0435 5.63742,0.0473 9.89294,0.2496 l 10.31616,0.4904 -6.32054,8.07703 c -3.47654,4.44234 -8.17966,10.59545 -10.45156,13.67359 -2.27189,3.0781 -4.51113,5.59655 -4.97644,5.59655 -0.99081,0 -0.52266,-27.4828 0.47697,-27.99829 0.0879,-0.0453 0.46219,-0.0744 1.06247,-0.0889 z m 23.82387,0.23306 4.6855,0.56896 c 2.57706,0.31309 4.76559,0.63543 4.86379,0.71623 0.0982,0.0808 -2.57924,3.53596 -5.95003,7.67809 -3.37067,4.14218 -9.50368,11.88553 -13.62914,17.20773 -4.12539,5.32213 -9.37345,12.30018 -11.66234,15.50655 l -4.1615,5.82962 0.1912,-7.74578 0.19172,-7.74578 12.73514,-16.00781 z m -55.68291,0.0801 c 1.80479,0.16305 3.64651,1.95224 4.39147,5.26531 l 0.51986,2.31407 h -4.82916 -4.82916 l 0.57722,-3.08767 c 0.59691,-3.19186 2.36499,-4.65476 4.16977,-4.49171 z m -58.61296,0.006 c -1.61986,0 -2.95431,0.37843 -2.96571,0.84129 -0.0114,0.46275 1.30449,0.84181 2.92437,0.84181 1.61981,0 2.95431,-0.37906 2.96571,-0.84181 0.0114,-0.46286 -1.30463,-0.84129 -2.92437,-0.84129 z m 138.30681,0.8201 c 6.12952,-0.0461 5.45624,0.3827 5.28546,10.11877 -0.069,3.93374 -0.33278,20.92491 -0.58601,37.75841 l -0.46043,30.60641 -4.76767,4.31394 c -4.23336,3.83043 -19.11194,20.17155 -30.00954,32.95923 l -3.8995,4.57595 -7.24091,0.007 -7.2409,0.007 -0.39067,-6.1004 c -0.21482,-3.35523 -0.43218,-14.47925 -0.48318,-24.71994 l -0.093,-18.61902 10.34407,-13.19402 c 5.68933,-7.2566 12.4162,-15.9174 14.94844,-19.24586 5.98005,-7.86078 12.79756,-16.63865 21.69428,-27.93266 7.10398,-9.01821 8.67861,-12.17395 3.79305,-7.6016 -3.02451,2.83074 -13.13877,15.31235 -21.84414,26.95804 -6.6754,8.92984 -26.61473,34.85169 -27.73423,36.05517 -0.36555,0.39306 -0.84584,-2.88795 -1.06711,-7.29155 l -0.40256,-8.00623 5.27616,-7.43365 c 5.31216,-7.48442 15.06215,-20.10975 27.09809,-35.08882 l 6.51123,-8.10338 h 8.20415 c 1.17461,-2.3e-4 2.18928,-0.0162 3.06493,-0.0227 z m -178.14623,6.29729 c 0.15188,-0.0103 0.31198,-0.01 0.47955,0.002 0.61875,0.0425 1.34226,0.23735 2.15491,0.61185 1.72019,0.79265 2.05546,1.54255 1.98386,4.43694 -0.0474,1.91574 -0.50708,3.89447 -1.02165,4.39663 -0.67267,0.65646 -0.60532,1.59016 0.23927,3.32331 0.64607,1.32584 1.39451,3.96786 1.66346,5.87096 0.47746,3.37818 0.42518,3.4726 -2.20813,3.99666 -5.52217,1.09905 -5.86107,0.89862 -5.75469,-3.40444 0.0562,-2.2741 0.87666,-5.47356 1.93942,-7.56233 1.8298,-3.5963 2.61561,-2.80783 0.14469,-5.84823 -2.37672,-3.11954 -1.89898,-5.66823 0.37931,-5.8229 z m 93.96739,3.82148 h 3.60908 3.60908 l -0.78652,3.99665 c -0.43271,2.19828 -0.92689,5.13319 -1.09812,6.52157 -0.34433,2.79141 -0.32379,2.82407 -3.35897,-5.25911 z m -54.85247,3.36568 c -0.95288,0 -1.74198,0.37903 -1.75338,0.84181 -0.0114,0.46286 0.52473,0.84129 1.19166,0.84129 0.66688,0 1.45593,-0.37843 1.75338,-0.84129 0.29745,-0.46278 -0.23872,-0.84181 -1.19166,-0.84181 z m 0.65422,7.57318 c -1.41565,0 -2.58379,0.37853 -2.59519,0.8413 -0.0114,0.46285 0.90376,0.8418 2.03347,0.8418 1.12965,0 2.29724,-0.37895 2.59467,-0.8418 0.31555,-0.49085 -0.53123,-0.8413 -2.03295,-0.8413 z m 0.28784,3.36569 c -1.61975,0 -2.95483,0.37899 -2.96623,0.84181 -0.0114,0.46278 1.30464,0.84129 2.92437,0.84129 1.61982,0 2.95483,-0.37851 2.96623,-0.84129 0.0114,-0.46282 -1.30455,-0.84181 -2.92437,-0.84181 z m -63.06768,14.72458 c 1.01767,0.27371 39.85512,0.95154 54.53642,1.20093 3.58923,0.0609 3.63298,0.0978 3.03237,2.5554 -0.33503,1.3713 -0.39364,9.98572 -0.13022,19.14302 0.26352,9.1573 0.57707,20.66106 0.69711,25.56433 l 0.21808,8.9147 -20.42718,0.62115 c -11.23507,0.34149 -29.00196,1.31865 -33.5781,1.63502 -5.39135,0.37278 -7.9271,-0.94542 -8.11423,-1.49965 -0.15871,-0.47036 -0.0111,-14.96211 0.50027,-31.15999 0.76057,-24.09618 0.38633,-24.93195 0.87955,-25.76743 0.60619,-1.34454 0.97642,-1.36019 2.38593,-1.20748 z m 118.01317,-0.2805 c 3.69764,0.031 6.94545,0.12844 8.85062,0.28474 l 6.92774,0.56844 -0.14521,5.88026 c -0.0799,3.23404 0.11234,10.29966 0.42736,15.70137 0.31505,5.40184 0.54162,15.97475 0.50282,23.4952 l -0.0703,13.67359 h -12.30261 c -6.76654,0 -12.47439,-0.1763 -12.68398,-0.39119 -0.20972,-0.21503 -7.9345,-0.45362 -17.1664,-0.5302 -9.23188,-0.0769 -19.28948,-0.32098 -22.35005,-0.54209 l -5.56504,-0.40204 -0.39791,-4.32635 c -0.21911,-2.37943 -0.64894,-10.76337 -0.95498,-18.63091 -0.30595,-7.86747 -0.95446,-18.47005 -1.44074,-23.56083 -0.48631,-5.09077 -0.69848,-9.5588 -0.4718,-9.92911 0.22658,-0.3704 7.47826,-0.69656 16.11478,-0.72606 8.63636,-0.0292 21.76527,-0.2319 29.17548,-0.45062 3.70505,-0.10936 7.85254,-0.14516 11.5502,-0.1142 z m 0.95343,4.3341 c -1.02053,0.14424 -2.1493,2.40108 -2.21072,4.88549 -0.0444,1.79455 -0.25036,3.26233 -0.45786,3.26233 -0.20752,0 -1.38535,-0.95582 -2.61689,-2.1239 -2.94648,-2.7948 -5.89807,-3.5098 -7.60625,-1.84278 -1.94247,1.89572 -0.88875,5.27948 2.05413,6.5965 1.93951,0.86804 2.26891,1.38444 1.62161,2.54041 -1.0624,1.89774 -1.16522,6.61045 -0.14418,6.61045 0.43754,0 1.31801,-1.04134 1.95647,-2.31407 1.81586,-3.61921 6.07294,-3.58829 11.24014,0.0822 4.77496,3.39182 5.00012,3.46497 5.66632,1.83399 0.73262,-1.79368 -3.09873,-6.07591 -6.5691,-7.34219 l -2.97863,-1.08675 0.60978,-5.16403 c 0.33556,-2.8402 0.38505,-5.39469 0.11007,-5.67665 -0.20953,-0.21484 -0.43939,-0.29426 -0.67489,-0.26097 z m -22.86993,4.78265 c -0.73617,0 -1.23612,0.82978 -1.26762,2.10324 -0.0525,2.12492 -1.2156,2.8126 -2.13527,1.26245 -0.82884,-1.39704 -5.44079,-0.9903 -6.06371,0.53485 -0.82945,2.03072 0.67888,3.92723 3.76256,4.7315 2.11887,0.55232 2.58285,1.02705 2.09651,2.1394 -0.34383,0.78621 -0.83213,2.09175 -1.0852,2.90163 v 5.2e-4 c -0.62524,2.00228 0.76064,1.86348 2.10736,-0.21084 1.51668,-2.33624 6.84191,-2.27724 9.81594,0.10852 1.48162,1.18857 2.5213,1.50916 3.09077,0.95343 1.31343,-1.28175 -2.44496,-5.07286 -5.86011,-5.91127 -2.77384,-0.68107 -2.93557,-0.9253 -3.08612,-4.66586 -0.11116,-2.76314 -0.52389,-3.94757 -1.37511,-3.94757 z m 13.00179,1.69241 c 0.81696,-0.008 2.12502,0.74497 3.35897,2.09393 2.21165,2.41767 2.15293,2.45118 -1.49345,0.84904 -1.4879,-0.6537 -2.69555,-1.5856 -2.68355,-2.07067 0.0145,-0.58861 0.32786,-0.86744 0.81803,-0.8723 z m -31.12264,0.12661 c -0.3119,0.0181 -0.65444,0.20866 -1.02682,0.57205 -0.64702,0.63002 -1.40421,0.63264 -2.55746,0.007 -2.20798,-1.1975 -5.66403,0.37323 -5.71903,2.59932 -0.0565,2.28699 3.09676,5.09633 5.71231,5.09633 2.1187,-0.003 2.10968,-0.0313 -0.53795,-1.67018 -2.51926,-1.55954 -3.655,-4.2168 -1.80248,-4.2168 1.49674,0 6.26225,5.14237 5.17643,5.58571 -2.13091,0.87015 -5.39324,3.83538 -4.98212,4.5284 0.23615,0.3979 1.76324,0.17184 3.39359,-0.50229 3.39309,-1.40322 6.3861,-0.9108 8.40517,1.38286 v 0.002 c 1.41381,1.60617 2.85812,1.47614 2.90112,-0.26148 0.0377,-1.52377 -3.40545,-4.84312 -5.02399,-4.84312 -1.1152,0 -1.60347,-0.94493 -1.9606,-3.79666 -0.38062,-3.03921 -1.0425,-4.53724 -1.97817,-4.48293 z m -63.00443,1.76164 c -2.29068,0.12167 -2.75939,2.23673 -3.437,10.12445 -0.63603,7.40357 -1.02454,9.06034 -2.21123,9.43405 -1.83237,0.57707 -3.46399,3.9506 -3.54759,7.33392 -0.10318,4.17364 1.45367,13.48747 2.67736,16.01659 1.10776,2.28951 1.20802,2.31407 9.45575,2.31407 9.89768,0 9.55997,0.39999 9.72551,-11.49645 0.12745,-9.15086 -1.18539,-13.42475 -4.3708,-14.22911 -2.11981,-0.53556 -2.14332,-0.63889 -1.94251,-8.76174 0.22014,-8.90506 -0.1373,-9.75357 -4.44728,-10.54819 -0.7476,-0.13783 -1.37359,-0.21566 -1.90221,-0.18759 z m 30.18731,1.19735 c -0.82546,-0.0303 -2.10819,0.13458 -3.26905,0.44338 -2.70539,0.71943 -2.80865,0.89306 -2.67633,4.49378 0.0771,2.09917 -0.16798,4.4037 -0.89813,4.75682 -2.46471,1.19199 -1.10124,3.66067 -1.20613,7.90339 -0.0665,2.68783 0.12731,5.3874 0.28577,6.42855 0.14138,0.92891 -1.3561,0.68866 -2.57297,0.99219 -2.05693,0.51306 -2.12159,0.73722 -2.29908,7.91683 -0.11433,4.6247 0.18561,7.76598 0.80201,8.39794 0.6485,0.66491 4.19666,1.00975 10.39007,1.00975 11.75025,0 11.86905,-0.096 10.61279,-8.59844 -0.49787,-3.36979 -1.16936,-6.50528 -1.4919,-6.96805 -0.32254,-0.46283 -0.77518,-4.19159 -1.00563,-8.28631 -0.3173,-5.63636 -0.7985,-7.83431 -1.98024,-9.04596 -0.85861,-0.88029 -1.54242,-2.3328 -1.52032,-3.22823 0.0603,-2.43928 -1.26694,-5.66277 -2.51922,-6.11849 -0.15212,-0.0554 -0.37649,-0.087 -0.65164,-0.0971 z m 45.31041,0.68368 c 0.15046,0.0165 0.3154,0.0574 0.48731,0.12402 0.68761,0.26639 1.24578,0.63319 1.24178,0.81494 -0.005,0.18185 -0.57601,0.33073 -1.2702,0.33073 -0.69422,0 -1.2534,-0.36673 -1.2423,-0.81494 0.008,-0.33621 0.33202,-0.50428 0.78341,-0.45475 z m 107.395,1.28312 c -1.02507,0.0217 -2.12906,0.43511 -3.19568,1.37925 -1.95885,1.73397 -2.11234,5.13367 -0.32349,7.16597 1.76494,2.00496 4.03608,1.95203 6.18412,-0.14418 3.50433,-3.4198 1.19823,-8.08729 -2.23087,-8.38657 -0.14288,-0.0125 -0.28765,-0.0176 -0.43408,-0.0145 z m -181.60494,0.0264 c 0.84508,0 1.89048,0.26709 2.70423,0.8015 0.94242,0.61889 0.58199,0.81889 -1.49345,0.82889 -1.50425,0.007 -2.72545,-0.36611 -2.71405,-0.82889 0.0132,-0.53441 0.65819,-0.8015 1.50327,-0.8015 z m 26.36066,0.74259 c 0.87893,-0.0217 2.05328,1.2774 2.19315,3.22151 0.14015,1.94809 -0.15413,2.72748 -1.02939,2.72748 -1.34573,0 -2.20361,-1.73965 -2.13941,-4.33772 0.0274,-1.10987 0.4483,-1.59824 0.97565,-1.61127 z m -25.9581,3.915 c 0.15301,0.0174 0.32521,0.0561 0.52038,0.10749 1.46853,0.38647 1.65472,1.14789 1.52859,6.25027 -0.13225,5.34934 0.0181,5.88456 1.89497,6.74946 2.58442,1.19098 4.15443,5.39978 2.27997,6.11228 -0.7022,0.26712 -4.08577,0.48525 -7.51892,0.48525 -6.02879,0 -6.24007,-0.0692 -6.19187,-2.02055 0.035,-1.41725 0.94221,-2.53957 3.03805,-3.75843 l 2.98794,-1.73736 0.15451,-6.2606 c 0.12646,-5.11546 0.23527,-6.04957 1.30638,-5.92781 z m 24.27139,4.93769 c 0.64412,-0.013 1.55712,0.0743 2.83962,0.24081 5.10307,0.50449 4.64329,0.89323 4.26433,6.21874 l -0.14314,5.78311 h -3.70675 -3.70675 l -0.77721,-8.86819 c -0.21254,-2.39573 -0.70251,-3.33555 1.2299,-3.37447 z m 43.23508,2.96106 c -0.35457,0.0201 -0.78018,0.57721 -1.18804,1.7694 -0.4202,1.22873 -1.00474,1.56788 -1.97817,1.14877 -4.9761,-2.14309 -7.97177,-2.89318 -8.70128,-2.18127 -1.04971,1.02438 0.3084,3.70559 2.94969,5.82445 l 2.0159,1.61748 -2.88768,1.36115 c -7.57449,3.56994 -6.85417,14.43471 1.18442,17.86455 4.84449,2.06709 12.69469,-0.79212 15.10502,-5.50148 3.95295,-7.72302 2.64463,-13.39678 -3.19515,-13.85703 -2.86202,-0.22562 -2.87015,-0.23913 -2.53525,-4.12326 0.21533,-2.49788 -0.1785,-3.95631 -0.76946,-3.92276 z m 19.87217,1.24282 c -0.2911,0.0695 -0.58431,0.48651 -0.85576,1.28002 -0.53623,1.56717 -0.70789,1.59237 -2.54558,0.36845 -2.7153,-1.80842 -5.78642,-1.24943 -6.18257,1.12552 -0.23763,1.42481 0.43809,2.33805 2.75591,3.72587 2.69021,1.6108 2.86871,1.91261 1.44074,2.43602 -2.68556,0.98449 -3.81828,2.95252 -4.41369,7.6693 -0.47912,3.79572 -0.28374,4.84255 1.28571,6.88899 1.0179,1.32717 3.006,2.92189 4.41834,3.54345 4.82446,2.12343 8.18476,1.09345 11.45304,-3.51038 4.11231,-5.79247 2.3878,-13.54293 -3.33468,-14.98823 -1.51741,-0.38321 -2.01284,-1.26797 -2.38745,-4.25917 -0.36358,-2.90338 -0.99358,-4.4327 -1.63401,-4.27984 z m 17.02067,0.0114 c -0.75626,0.0492 -1.49047,1.81908 -1.54306,3.94653 -0.0408,1.65149 -0.0695,1.65053 -2.44223,-0.0692 -1.32041,-0.95712 -3.22101,-1.73995 -4.22299,-1.73995 -2.8778,0 -1.97734,3.50372 1.29759,5.04879 1.75042,0.82578 2.52749,1.71269 2.24741,2.56573 -0.33737,1.02815 0.15343,1.24332 2.31717,1.01648 6.05392,-0.63463 10.29041,5.32772 7.61866,10.72234 -0.9649,1.94833 -1.459,2.09797 -6.69417,2.03657 -5.66945,-0.0671 -6.85596,0.64847 -4.71496,2.84375 1.39812,1.43358 8.67312,1.25171 11.69748,-0.29248 2.94413,-1.50326 4.23127,-4.13924 4.34909,-8.90489 0.11508,-4.65527 -1.06047,-6.51233 -5.33301,-8.42326 -3.4366,-1.53686 -3.66886,-1.85452 -3.59306,-4.91959 0.0445,-1.80226 -0.25247,-3.48639 -0.66042,-3.74241 -0.10703,-0.0672 -0.21546,-0.0954 -0.3235,-0.0884 z m -44.31306,2.13734 c 0.6942,0 1.98335,0.55558 2.86495,1.23507 1.21064,0.93312 1.29393,1.23558 0.34054,1.23558 -0.69419,0 -1.98345,-0.55616 -2.86494,-1.23558 -1.21078,-0.93319 -1.29393,-1.23507 -0.34055,-1.23507 z m 20.99562,0.8599 c 0.73843,-0.0103 2.00931,0.7389 2.82412,1.6645 1.89067,2.14776 0.58901,2.14776 -2.10375,0 -1.50171,-1.19792 -1.69777,-1.6502 -0.72037,-1.6645 z m -12.57236,6.78925 c 0.85618,0.0504 1.70347,0.57862 2.59158,1.5875 1.82053,2.06814 1.09812,7.12966 -1.35961,9.5281 -2.41448,2.35635 -8.64242,2.88878 -10.34459,0.8847 -3.60312,-4.24223 -3.94987,-7.59398 -1.0604,-10.24692 2.37135,-2.17727 3.87972,-2.31553 5.18056,-0.47439 0.88055,1.24639 1.06942,1.24639 2.34663,0 0.9245,-0.90221 1.78966,-1.32943 2.64583,-1.27899 z m 16.05794,1.29604 c 0.83031,0.004 1.81204,0.14566 2.97656,0.40876 4.90472,1.10819 5.81903,2.03987 5.72523,5.83376 -0.0607,2.45662 -0.60516,3.60788 -2.33939,4.94595 -2.72816,2.10509 -5.05507,2.17969 -8.10338,0.26045 -2.77106,-1.74483 -3.33149,-3.39364 -2.49391,-7.33806 0.61546,-2.89882 1.74395,-4.12349 4.23489,-4.11086 z m -61.20454,0.41031 c 5.72446,0.10035 12.37081,1.23352 9.00772,1.53583 -0.92762,0.0834 -4.4542,0.42816 -7.83673,0.76636 -6.43009,0.64276 -6.92136,0.55114 -6.87606,-1.28003 0.0206,-0.83392 1.48495,-1.09626 5.70507,-1.02216 z m 165.90461,1.16221 -0.0951,4.70824 c -0.0765,3.77527 -0.46099,5.0253 -1.94303,6.31072 -1.01657,0.88169 -3.44882,3.53268 -5.40484,5.89111 -1.95612,2.3583 -6.6278,7.96069 -10.38128,12.44989 -3.75336,4.4893 -6.63977,8.3513 -6.41459,8.58242 0.44512,0.45629 12.89768,-12.51225 18.85879,-19.64066 2.03183,-2.4297 4.00592,-4.41782 4.38681,-4.41782 1.50901,0 0.49071,3.1869 -1.63349,5.11287 -1.23742,1.12192 -5.53921,6.07884 -9.55962,11.01586 l -5.2e-4,-5.1e-4 -7.30963,8.97619 -8.49095,0.0687 -8.49147,0.0693 3.73155,-3.99614 c 3.44181,-3.68609 22.01191,-23.60598 29.5274,-31.67352 z m -194.75297,0.0418 c 0.29455,-0.01 0.62519,-10e-4 0.99477,0.0207 1.30137,0.078 4.49948,0.19022 7.10654,0.25012 4.55323,0.10419 4.75168,0.20422 5.0369,2.54093 0.28404,2.32726 0.13039,2.45255 -3.55224,2.89853 -2.11707,0.2563 -5.43902,0.72297 -7.38197,1.03663 -3.5229,0.56854 -3.53413,0.56148 -4.02043,-2.42363 -0.53648,-3.29353 -0.24543,-4.25344 1.81643,-4.32325 z m 23.88794,3.74499 h 7.52357 c 7.50537,0 10.29543,1.03475 6.56446,2.43448 -1.2077,0.45298 -2.36285,0.41069 -2.9962,-0.11007 -0.69999,-0.57559 -1.40938,-0.53959 -2.2102,0.11162 -0.64853,0.52745 -1.78952,0.72242 -2.53524,0.43357 -0.88077,-0.3413 -1.3667,-0.083 -1.387,0.7369 -0.0333,1.34623 2.15772,2.61126 2.79776,1.61541 0.32941,-0.51252 1.80196,-0.5622 7.05539,-0.23823 0.57763,0.0357 1.03625,0.63283 1.01905,1.32705 -0.0246,0.99608 -1.22845,1.26382 -5.71127,1.27382 -3.12405,0.006 -6.48471,0.22644 -7.4688,0.48886 -1.94133,0.51769 -2.78609,-1.28463 -2.69699,-5.75933 z m -13.99811,4.78679 c 2.80579,-0.0103 2.93361,0.36178 2.90008,1.71824 -0.0327,1.26917 -0.66427,2.0038 -1.95078,2.26808 -1.04659,0.21488 -3.68349,0.62068 -5.85959,0.90124 -3.38605,0.43672 -4.07942,0.26901 -4.80953,-1.16117 -1.51585,-2.96956 -0.92074,-3.33169 5.92832,-3.61063 1.62349,-0.0661 2.85624,-0.11232 3.7915,-0.11576 z m 183.94846,12.18841 c 0.13105,0.15089 0.40011,4.72384 0.59738,10.16165 0.33718,9.29699 0.2659,9.8803 -1.19424,9.77511 -5.66406,-0.40787 -15.76962,-1.66188 -16.09669,-1.99729 -0.21627,-0.2217 1.70939,-2.58787 4.27881,-5.25859 2.56939,-2.6707 6.36034,-6.67819 8.42429,-8.9054 2.06386,-2.22724 3.85942,-3.92646 3.99045,-3.77548 z m -50.45893,22.05963 c 10.18318,0.17783 50.16135,1.56061 50.94366,1.81023 0.57399,0.18318 1.02469,1.1022 1.00149,2.04225 -0.0232,0.94013 -0.32464,1.64316 -0.66973,1.56166 -1.866,-0.43881 -27.02247,-1.33777 -39.99032,-1.42937 l -14.98979,-0.10594 0.62891,-1.8929 c 0.34582,-1.04128 0.6777,-1.93319 0.7369,-1.98179 0.0375,-0.0306 0.88414,-0.0295 2.33888,-0.004 z" transform="translate(245.03756,62.135698) translate(-815.01739,490.02057)" fill="#9bafff"/>
</svg>