<?xml version="1.0" ?><svg xmlns="http://www.w3.org/2000/svg" width="347.67087mm" height="282.20862mm" viewBox="0 0 347.67089 282.20861">
    <g color="#000">
        <path fill="#FFFFFF" d="m 322.06139,280.89356 c 6.09643,14.95495 12.91047,29.62745 10.73371,47.84101 -4.16429,-15.61583 -15.89069,-24.68549 -24.55922,-36.40191 8.67495,14.73292 13.45062,30.65922 12.60078,48.30661 -7.08457,-19.11163 -16.21487,-23.26022 -24.63674,-32.58974 7.9164,15.71932 16.47367,31.18423 17.27181,49.72616 -16.52926,-19.68911 -26.63865,-25.66002 -37.1507,-32.49052 0,0 24.43161,23.36591 29.7279,51.72966 -25.83758,-2.0293 -42.01044,10.51958 -52.17097,25.00726 -8.17268,-8.89846 -18.17203,-10.75868 -27.55646,-10.73785 -2.29435,0.005 -4.55202,0.12154 -6.73654,0.27389 -9.92154,0.69159 -25.36525,11.03506 -30.83533,24.38197 -3.1648,7.72199 -4.84921,15.17664 -5.21002,22.22397 -19.12086,-14.48676 -29.34601,-31.51126 -29.34601,-31.51126 l -3.23288,-1.06815 -3.48506,-12.49794 0.61392,-2.20349 -1.31982,-0.32866 -1.29449,-4.64313 -7.74526,2.39262 -2.77244,-0.69039 -0.36897,1.66036 -2.04381,0.63149 0.56173,1.66759 -3.03238,0.35295 1.53376,10.76576 -1.80816,8.138 c 0,0 -13.04,21.47671 -3.70778,59.60101 9.33252,38.1244 36.32925,69.5898 77.05834,73.3392 40.72869,3.7494 20.23133,-16.64757 20.23133,-16.64757 0,0 -9.49622,-5.33734 -21.53874,-14.31644 14.18856,4.75878 29.65091,5.70014 45.64786,1.59577 -0.0636,0.10738 -0.21838,0.32396 -0.26303,0.40876 8.97559,15.77814 32.9678,31.66703 66.4533,35.7725 5.55222,0.6807 10.81869,0.69225 15.77837,0.22996 18.55427,-1.24355 31.95682,-9.04037 40.6678,-16.4791 2.6944,-2.11736 4.70457,-3.97851 5.86528,-5.1878 1.49015,-1.5525 2.70082,-3.17035 3.67884,-4.747 2.01067,-2.57372 3.05253,-4.30723 3.05253,-4.30723 l -0.48008,-1.57096 c 0.36488,-1.61439 0.30873,-2.89185 -0.21032,-3.53312 -0.0303,-0.0375 -1.27343,-1.49212 -1.35496,-1.58956 l -0.12454,-0.40773 c 0,0 -0.12534,0.10957 -0.12764,0.11162 -1.1948,-1.42516 -10.46426,-12.2795 -17.82423,-20.91035 9.02069,3.25136 17.91316,4.14646 25.77465,0.51883 2.32382,4.13253 5.92882,7.51254 10.01231,8.57829 24.75205,2.68061 36.002,-24.65044 7.51582,-29.56099 10.79673,-26.03213 2.22934,-54.39599 -5.0617,-57.66625 0.50577,-2.44929 0.97542,-5.22688 1.26658,-7.99124 2.17908,-7.27045 1.06867,-16.04502 1.06867,-16.04502 0,0 -2.53051,0.25964 -5.23275,0.76327 -2.75381,-0.47029 -7.0231,1.534 -13.45551,7.537 -20.7339,19.3496 -15.43679,14.14384 -15.43679,14.14384 -7.51651,0.29951 -26.6563,1.61715 -36.47839,7.09001 4.54879,-26.8284 -9.36424,-36.71701 -11.46132,-36.6944 -0.0655,-0.31972 -0.29685,-0.669 -0.64027,-1.03095 0.33218,0.30679 0.56092,0.64344 0.64027,1.03095 8.74635,-9.4411 27.94955,-11.52601 48.40687,-15.71325 l -31.33969,-7.06107 c 9.7236,-7.95155 31.05568,-7.59896 48.20843,-10.23607 l -43.86193,-5.85184 c 16.57455,-8.80775 30.76291,-7.61152 44.74611,-11.21482 l -34.21083,-3.44682 31.80994,-17.36896 c -7.84228,0.1394 -10.77005,-2.64383 -29.03905,3.69641 l 18.01027,-25.55761 c -6.83385,2.05444 -14.79299,7.68931 -22.55831,21.33772 -2.63744,-15.214 -5.3507,-20.25071 -10.2216,-29.12743 l 2.88613,33.00988 c -2.69104,-15.34404 -13.28151,-24.66244 -21.88859,-34.4377 z m -121.51816,91.44455 v 5.2e-4 c -0.2117,10e-4 -0.42505,0.003 -0.64131,0.007 -1.37396,-0.0106 -2.79081,0.0488 -4.24883,0.18448 -3.58913,0.33421 -7.45169,1.81992 -10.86136,3.51865 -5.91728,2.73241 -9.71617,5.97132 -9.72809,5.98155 l -0.004,0.003 c 0,0 3.68626,4.71176 11.05772,6.0017 1.96736,0.34425 5.3072,0.50945 9.09402,0.37362 2.2958,0.15625 4.65928,0.0981 7.02025,-0.28474 5.97095,-0.96831 8.92975,-1.90069 10.75489,-3.21014 3.5451,-1.72388 5.78121,-4.18569 5.2493,-7.61917 0,0 -4.35494,-5.02959 -17.69246,-4.95629 z m 249.85503,103.2862 c -7.8739,0.0817 -15.74144,3.94832 -16.6424,11.87473 0.0232,12.57656 7.4403,14.22979 12.43956,15.48536 4.99906,1.25556 20.97339,0.73216 20.97339,-15.08797 0,-8.15725 -8.38871,-12.35907 -16.77055,-12.27212 z m -185.22229,15.43214 c -0.38574,0.49072 -0.73118,0.93476 -1.11001,1.41748 -0.33845,-0.19974 -0.73739,-0.45857 -1.0082,-0.6041 0.70718,-0.25083 1.41211,-0.54292 2.11821,-0.81338 z" overflow="visible" paint-order="fill markers stroke" transform="translate(-2511.9543,-2030.6768) translate(2390.8903,1758.6718)"/>
        <path fill="#9bafff" d="m 338.08108,272.01607 c -0.24302,-0.0222 -0.4873,-0.0106 -0.72605,0.031 -1.59164,0.27742 -2.94664,1.89497 -2.16783,3.82147 3.42976,8.43918 5.33933,23.06729 6.70554,34.21083 -2.50948,-14.05398 -13.36032,-27.64075 -21.65294,-33.80465 -2.56023,-1.90033 -5.79428,1.28047 -3.93671,3.87159 8.7246,12.15386 13.60519,31.44679 14.5526,41.14426 -3.16133,-10.90728 -15.34933,-24.67848 -21.89066,-31.43477 -1.03027,-1.06056 -2.7081,-1.13493 -3.82819,-0.1695 -1.11992,0.96539 -1.29414,2.63612 -0.39687,3.81165 9.08051,11.85762 15.03106,31.03885 15.24713,42.19794 -1.37875,-13.63189 -12.80007,-25.91224 -23.00118,-30.49477 -2.65864,-1.73092 -5.68743,1.60572 -3.7083,4.08502 8.39559,10.50458 15.31374,30.28095 17.77256,43.1586 -11.58747,-15.38998 -24.45318,-26.22437 -33.66151,-30.03382 -2.91077,-1.20381 -5.27842,2.57926 -2.92334,4.67103 19.12574,16.9834 27.05138,32.31574 30.28652,47.73507 -15.03877,-1.89792 -35.63116,6.3249 -42.50645,17.11213 -3.37465,1.93823 -6.21918,4.74293 -8.71678,7.90236 -7.49819,-7.63613 -14.53464,-10.69666 -24.49773,-11.29078 l -7.86618,-0.46974 -0.53485,-3.16415 c -0.29391,-1.74049 -0.46847,-4.58358 -0.38758,-6.31847 0.24918,-5.35595 0.062,-6.0601 -1.6061,-6.0601 -0.87586,0 -1.7167,0.36438 -1.86862,0.80977 -0.16396,0.47908 -2.31671,0.18213 -5.26066,-0.72554 -5.41842,-1.66943 -9.4212,-2.3855 -13.39557,-2.21226 -2.38463,0.10394 -4.75879,0.52815 -7.4228,1.25883 -7.48016,2.05255 -10.11773,3.32789 -14.08648,6.81251 -3.67539,3.22687 -5.13541,5.68389 -3.37809,5.68389 0.67543,0 2.46928,0.73361 3.98787,1.62936 10.07099,5.94222 32.67999,5.27598 37.95996,-1.11776 1.42724,-1.7293 2.53169,-0.4629 2.55178,2.92333 0.0134,2.18588 -1.8535,2.9489 -4.87567,4.25245 -0.5508,0.23758 -4.10599,1.92136 -7.42797,3.51297 -13.36752,6.40628 -21.40716,19.31746 -23.49107,37.72328 -0.002,0.0192 -0.003,0.0376 -0.005,0.0568 -6.95047,-6.00925 -14.52337,-13.18919 -19.08307,-18.372 -3.05791,-3.1416 -5.03291,-5.35374 -8.64702,-8.11114 -1.2327,-0.8126 -2.45598,-1.04115 -3.23288,-1.06815 -1.95831,-11.34709 -0.99803,-14.71055 -0.97203,-16.05277 0.054,-2.74406 -0.65318,-5.14499 -3.58738,-5.75882 -1.23791,-0.25895 -2.38115,-0.33804 -3.45095,-0.28835 -3.20931,0.14908 -5.76023,1.45874 -8.24084,2.56057 -1.8119,0.8048 -6.21566,4.87783 -6.41046,6.81043 -0.026,1.3978 0.12774,5.81503 1.26194,10.80503 -0.2666,2.5698 0.23874,5.25827 0.23874,7.16907 -6.11921,3.0538 -6.82017,9.66086 -7.95507,16.53646 -1.299,7.0367 -0.97474,17.97223 0.95446,34.92603 3.16511,27.8106 8.54028,39.76506 25.39742,56.49526 19.75934,19.6102 50.50862,29.81168 65.90295,26.77718 9.42173,-1.2232 17.35251,-1.16536 15.69931,-12.32276 -0.6678,-3.5995 -2.17378,-4.66358 -11.9507,-11.61428 -2.2872,-1.626 -4.52832,-3.27979 -6.74532,-4.94389 12.4627,2.16724 24.82494,2.01259 34.67282,0.10491 0.41113,1.42321 1.28757,2.81626 2.45721,4.64519 4.80564,7.5152 12.22301,13.49737 24.15667,19.48253 13.51873,6.77956 23.56269,10.25158 35.12809,12.14345 17.34818,2.83751 34.24033,0.43136 49.91064,-7.10913 15.46642,-7.44276 27.32021,-19.58073 28.39,-29.07058 0.47624,-4.22458 0.25821,-4.6274 -7.44554,-13.74438 -1.54678,-1.83052 -3.39466,-4.06464 -5.18676,-6.22752 4.83192,0.47521 9.31082,0.0774 13.35991,-1.21337 4.86406,7.07151 14.72091,9.74968 22.84563,7.21662 19.64299,-3.85653 18.78131,-28.44694 4.61161,-31.12162 21.84328,-16.90263 19.91279,-40.72599 20.12383,-55.80641 5.87371,8.70615 18.37038,29.71833 16.67082,56.96965 -18.71502,1.73113 -21.81149,12.56873 -18.56993,20.79098 4.53532,14.58751 28.33979,15.79635 34.85782,0.44132 3.12172,-7.35428 1.49993,-13.28033 -2.25981,-16.78089 -2.77317,-2.58196 -7.46745,-3.16969 -10.98124,-3.77238 2.41367,-34.28348 -10.37954,-49.80206 -18.84794,-60.82471 -0.20455,-0.95288 -0.90488,-4.62745 -1.57665,-6.74946 -0.45235,-1.42885 -0.97231,-2.85517 -1.66502,-4.06435 -1.31905,-2.53155 -5.54746,-3.96037 -6.15879,0.005 -0.10572,0.86863 0.0728,1.50358 0.28008,2.15853 0.41489,1.31015 1.12403,2.66496 1.89446,4.00957 1.12575,1.96486 2.38415,3.82854 2.98845,4.70256 -0.48866,21.02454 -1.32059,44.22988 -19.97139,57.65488 -0.70278,-0.24457 -1.38611,-0.46358 -2.05776,-0.66818 0.48529,-1.61623 0.97433,-3.31589 1.48363,-5.27668 5.9396,-22.8676 6.56154,-46.60044 -7.62796,-52.86964 4.6968,-4.4097 7.65648,-17.63786 2.43758,-22.53506 -5.7017,-5.35 -17.20521,2.24119 -23.97941,10.85309 l -3.71916,4.72891 -0.56327,-8.8129 c -0.4817,-7.5454 -1.1565,-8.89691 -4.6917,-9.39891 -0.29058,-0.0413 -0.57426,-0.0608 -0.8506,-0.0605 -4.14513,0.005 -6.56715,4.48403 -3.62096,7.43003 2.9411,2.941 0.35929,19.87532 -3.91501,25.68112 -2.7916,3.7921 -4.70265,4.73544 -7.94215,3.92224 -6.1141,-1.5346 -5.33962,2.33976 1.13688,5.68906 6.1062,3.1576 17.61018,3.73073 19.32078,0.96273 0.6625,-1.0714 -1.23753,-1.83141 -4.57853,-1.83141 -3.3404,0 -5.24053,-0.76001 -4.57853,-1.83141 0.6226,-1.0073 3.19981,-3.26802 3.19981,-3.26802 5.2909,2.1823 15.99033,2.93444 19.94193,0.91984 3.9513,-2.0146 7.21725,-5.8071 9.09815,-7.5184 10.231,0.1273 12.27347,27.41425 5.40587,49.63935 -0.25382,0.82144 -0.51842,1.60984 -0.78754,2.38331 -14.76606,-2.68546 -20.36999,5.87907 -20.36879,16.9199 3.1e-4,2.20428 0.34782,4.22185 0.97255,6.04769 -4.52073,1.26512 -9.69955,1.19583 -15.66209,-0.19017 -0.0633,-0.0147 -0.12487,-0.0322 -0.1881,-0.047 -1.44641,-1.77307 -3.04217,-3.71677 -4.04885,-4.98264 -6.78383,-8.53029 -26.8918,-29.85068 -40.47763,-43.44231 0.92569,-16.57166 7.77253,-23.35638 25.33902,-25.96379 7.1484,-1.0609 12.76004,-1.16155 12.99714,-3.15175 0.12418,-1.04122 -1.40713,-1.49021 -3.84576,-1.53065 -7.05742,-0.11706 -21.68074,3.18253 -25.80049,5.44256 1.04227,-6.54012 1.60152,-12.86301 1.49965,-18.52342 -0.91596,-6.15468 -4.49125,-12.36367 -10.64276,-16.91266 14.81716,-11.50121 43.6906,-8.95749 49.79437,-12.10314 8.60094,-4.39326 -22.77775,-11.85773 -27.53062,-12.5367 11.29468,-3.46997 27.03061,-4.49562 42.73073,-2.39469 1.45165,0.19143 6.84114,-0.54032 2.73058,-5.73763 -14.09235,-9.08162 -30.31672,-8.92142 -41.85481,-8.64237 10.77793,-3.51854 28.539,-5.6789 42.55709,-4.35426 1.45243,0.13638 2.76574,-0.8678 3.01481,-2.30528 0.24886,-1.4376 -0.65052,-2.82485 -2.06448,-3.18482 -8.78758,-2.23198 -17.76119,-6.92714 -34.48575,-3.91656 8.49098,-5.61719 20.46209,-10.57435 30.95108,-11.40395 1.38276,-0.11066 2.47474,-1.21884 2.56522,-2.60294 0.0905,-1.38421 -0.8485,-2.62543 -2.20503,-2.91507 -8.03008,-1.70766 -18.93399,-2.73073 -29.56977,1.36374 3.93889,-7.34585 9.9804,-15.40355 15.55926,-18.60662 1.90358,-1.09383 1.86036,-3.85482 -0.0765,-4.88807 -0.21058,-0.11573 -0.43773,-0.19837 -0.67127,-0.25373 -13.2022,-1.6984 -17.51455,7.47194 -23.34793,17.25993 2.0082,-10.89275 -6.18111,-23.97633 -11.70471,-31.88901 -0.53665,-0.76571 -1.25586,-1.13498 -1.9849,-1.20148 z m 6.88537,19.07584 c 3.04641,6.02959 4.71908,12.55854 3.16053,20.85557 -0.26248,1.40636 0.5802,2.78372 1.95182,3.19102 1.37169,0.4072 2.82903,-0.28743 3.37654,-1.6092 3.19695,-6.38945 5.91617,-13.31953 10.99313,-17.66146 -4.58807,5.77662 -7.88158,12.95357 -11.32128,19.55798 -1.34109,2.57787 1.65479,5.23547 4.05454,3.59668 6.51548,-4.45552 11.8621,-5.79601 16.92248,-5.76037 -8.91786,2.9842 -16.99951,7.8598 -24.34012,14.16348 -2.13415,1.83359 -0.52619,5.31519 2.25361,4.87929 8.61616,-1.35243 14.73688,-1.48261 19.6696,-0.97514 -10.84604,0.85168 -16.02295,1.80282 -27.76264,8.54418 -4.6571,3.01145 -4.99769,5.85829 -1.9942,5.88905 16.20669,0.15626 24.13507,1.34458 29.5367,2.95434 -14.69201,0.28148 -24.6749,1.56518 -35.86396,10.00198 -2.74157,1.43513 -3.60284,4.81897 -0.52813,4.46949 8.27564,-0.94727 15.46216,0.0698 22.1325,2.23862 -11.91261,1.11965 -30.37489,5.27014 -36.64893,14.72572 -3.25801,-1.23605 -8.02262,-4.27009 -11.74192,-4.72064 -2.54461,-12.92413 -7.15565,-26.34573 -18.74149,-40.29315 6.13854,4.34199 12.64593,11.14607 20.47317,24.1453 1.56822,2.60132 5.57526,1.18465 5.16092,-1.82418 -1.66439,-12.03442 -3.94731,-25.52771 -9.65625,-37.87676 5.57864,5.70367 9.61856,12.4445 11.32902,21.06021 0.57582,2.89347 4.66079,3.03573 5.43636,0.18914 2.76048,-10.15417 1.87538,-20.4325 -2.07739,-30.68185 4.11784,5.29103 7.34719,11.43519 8.63306,19.94762 1.11869,3.71125 5.50669,2.40142 5.55625,-0.45372 -0.14358,-11.07054 0.29182,-22.6038 -4.78834,-35.80091 5.39548,7.42449 9.02823,16.59245 10.09758,28.63959 0.92763,3.84035 4.25408,3.27223 4.36821,0.37879 3.51912,-10.9152 1.92312,-20.93647 0.35863,-31.77067 z m -145.80505,83.2683 c 5.65982,-0.066 13.84209,1.28663 15.80265,2.77193 1.3648,1.03467 1.04282,1.16035 -3.04167,1.18959 -2.51233,0.0187 -7.74492,0.37274 -11.62823,0.78755 -22.23313,2.3728 -24.90503,1.9629 -13.70098,-2.10427 3.07978,-1.11751 7.72485,-2.25431 10.32237,-2.52594 0.6801,-0.0711 1.43732,-0.10942 2.24586,-0.11886 z m 97.66277,4.90978 c 1.32649,-0.0309 2.36316,0.92789 3.49384,1.04025 2.49212,4.4922 5.61653,7.51999 8.93796,10.84223 -6.57611,0.64321 -12.31196,2.20173 -18.37562,0.70073 -0.0589,-0.0908 -0.12348,-0.18714 -0.18242,-0.27647 -1.89842,-3.03693 -3.87469,-5.90326 -5.38313,-8.91883 1.14254,-0.61388 1.44023,-2.20276 4.10414,-1.06919 -0.8893,4.52752 3.31419,8.96856 5.94227,9.22166 2.03096,0.99938 6.50836,-0.16017 2.95693,-2.62103 -3.1013,-2.21401 -7.29552,-1.79367 -4.27778,-7.39748 1.08739,-1.12828 1.98792,-1.50331 2.78381,-1.52187 z m -82.08801,0.8015 c 1.03295,-0.0747 1.18146,0.20628 0.87643,1.00149 -1.32916,3.46409 -15.04249,5.95764 -25.70024,4.67258 -5.29364,-0.6379 -11.20946,-2.07745 -11.2143,-2.72851 0,-0.056 3.70537,0.0186 8.23464,0.17621 5.20227,0.17874 11.09048,-0.22096 15.9892,-1.08623 4.26482,-0.75372 8.97675,-1.58565 10.47068,-1.84847 0.55689,-0.0981 0.99927,-0.16217 1.34359,-0.18707 z m 92.67289,0.83716 c 5.44333,0.0864 12.24534,0.61159 17.37827,7.61866 0.29734,0.37416 0.58502,0.76631 0.86197,1.17253 -1.86572,0.3372 -6.4585,1.15391 -10.30222,1.44798 -3.34891,-3.3599 -6.8182,-7.56909 -7.93802,-10.23917 z m -27.3544,3.83697 c 1.31846,2.52524 2.90018,5.09007 4.28191,7.26933 -6.41307,0.14225 -12.03915,0.2229 -16.26774,0.2651 2.8074,-3.64445 6.38868,-6.61968 11.98583,-7.53443 z m -140.91129,4.64003 c 3.17451,0.2492 5.12288,0.58591 6.19548,1.17151 0.88111,0.4811 1.76536,1.12737 0.34055,3.92327 -0.7881,1.5465 -1.79351,3.67898 -3.24941,6.58048 -1.36341,2.6934 -2.8416,5.52234 -2.9006,8.79584 0.064,1.9953 0.5274,3.21157 1.7632,4.96817 0.64381,2.7087 1.34598,8.62973 1.99988,11.71143 1.8358,8.6491 9.35967,34.86812 12.70878,40.76392 9.74982,17.1627 34.45229,41.55123 54.52484,53.83393 11.45552,7.01 11.98245,7.62875 10.84895,12.72325 -2.3715,10.658 -22.52483,10.26179 -44.27998,-0.87281 -22.36395,-11.4462 -37.09163,-27.44346 -44.26914,-48.08596 -4.43651,-12.7592 -7.33127,-45.54856 -6.12727,-57.50036 1.0369,-14.7744 5.12477,-11.73812 6.06268,-15.72772 0.6259,-2.6617 1.20313,-6.11114 1.47433,-11.11044 0.4767,-8.798 0.761,-11.50021 4.90771,-11.17451 z m 86.32393,2.32027 c 3.55243,-0.11955 11.16985,1.38032 15.2709,3.33882 10.09163,4.81715 21.15035,20.60409 23.45852,33.48943 1.59656,8.91107 1.10189,20.09802 -1.17254,26.54411 -0.65287,1.85007 -1.47358,3.68965 -2.41846,5.50096 -27.29737,-3.08101 -51.78902,-9.40766 -65.2415,-17.05581 -2.01995,-1.14838 -5.1853,-3.53168 -8.7576,-6.44818 0.24184,-5.9458 0.83195,-11.96416 1.66605,-14.7159 v 0.003 c 2.23368,-7.37172 6.95242,-15.56444 11.03343,-19.15697 3.97679,-3.50019 15.92974,-9.91309 18.47743,-9.91309 4.42208,0 0.55995,3.65753 -6.11591,5.79293 -2.52679,0.80794 -3.11121,1.37138 -2.90731,2.80034 0.23042,1.61712 0.71365,1.77368 5.0307,1.62729 4.7243,-0.16007 4.77645,-0.13671 4.77645,2.18178 0,5.71424 4.65884,4.9561 7.17734,-1.16788 1.24001,-4.62028 2.95598,-3.75773 7.35717,-3.77187 7.4124,-0.0187 8.81964,-0.79963 5.77226,-3.19722 -1.24209,-0.97682 -4.44793,-0.76016 -5.29993,-0.76016 -0.85173,0 1.21772,-0.81329 -0.0568,-1.95543 -0.45327,-0.4061 -1.01742,-0.77424 -2.89181,-0.47026 -1.59039,0.25794 -3.10747,0.12029 -3.37137,-0.30644 -0.26363,-0.42672 -1.2048,-0.77618 -2.09135,-0.77618 -0.88683,0 -1.6123,-0.3964 -1.6123,-0.88108 0,-0.44275 0.73253,-0.66244 1.91668,-0.70229 z m 170.90946,1.83555 c 7.0173,0 4.96512,12.00435 -3.60598,21.09225 -4.649,4.9296 -7.47627,6.37894 -12.44317,6.37894 -3.535,0 -7.34538,-1.10593 -8.46718,-2.45773 -2.6259,-3.1642 -0.41322,-5.46014 2.73988,-2.84324 1.8689,1.5511 3.06851,0.32743 5.40691,-5.51697 3.074,-7.6825 11.89184,-16.65325 16.36954,-16.65325 z m -82.45026,0.30076 c 2.77028,4.25025 8.63512,12.25863 13.60847,17.0217 -9.05569,0.627 -16.85361,-0.13141 -23.76651,-1.86397 -3.04746,-4.26097 -7.15619,-8.6501 -9.85418,-12.61629 6.69822,-0.22522 13.86025,-2.14356 20.01222,-2.54144 z m 14.54226,0.51211 c 2.20463,2.69228 3.65121,7.30716 1.8402,9.99319 -2.89482,-2.05701 -10.29206,-6.92533 -10.54871,-9.97769 3.92827,0.30648 5.82762,0.0656 8.70851,-0.0155 z m -62.0944,2.42931 c 1.36828,-0.014 4.90081,1.04554 6.55516,1.02268 -1.64095,1.10134 -1.4315,3.60918 -0.28836,4.57543 3.15357,4.92565 6.09706,6.02307 10.49652,5.11235 2.89812,-0.69536 4.84777,-3.25981 2.27996,-3.95583 -6.99147,-1.89531 -7.77327,-0.70917 -9.65729,-5.77226 3.73504,-0.0596 8.16589,-0.61152 12.5398,-0.72037 1.308,2.72813 5.71402,9.53915 9.62164,14.52934 -9.64658,-0.0746 -16.20009,-0.99953 -22.71334,-1.93528 -3.03311,-4.12118 -7.2096,-9.95361 -8.83409,-12.85606 z m -4.32273,1.00614 c 1.33618,3.04551 3.58013,6.60853 6.40529,10.6133 l -7.90856,-0.32917 c -1.33801,-1.75398 -2.63687,-3.36579 -3.90881,-4.84312 1.25553,-1.911 2.99075,-3.55931 5.41208,-5.44101 z m 40.05698,0.77411 c -0.18084,-0.007 -0.37691,0.0147 -0.59066,0.0687 -1.28576,0.85275 -1.63693,2.58611 -0.78445,3.87212 2.66576,5.05596 2.93103,7.04525 9.32812,6.9205 1.54269,-0.0349 2.76476,-1.31368 2.73006,-2.85615 -0.0347,-1.5429 -2.67555,-1.59361 -4.21835,-1.55856 -4.45713,0.17133 -3.75224,-6.34365 -6.46472,-6.44664 z m -77.66967,3.07682 c 0.90709,0.11161 0.71386,1.21586 -0.72709,2.65668 -1.88174,1.62628 -1.82263,3.00671 -1.82263,-0.0486 0,-1.0297 0.57695,-2.0932 1.28158,-2.3642 v -5.2e-4 c 0.54147,-0.20774 0.96577,-0.2806 1.26814,-0.24339 z m -77.77355,3.94446 c 0.44834,0.0333 0.90933,0.34007 1.29708,0.9927 1.0197,1.71629 2.11312,2.47565 4.07933,3.33985 1.952,1.9852 5.61492,6.68982 7.76852,8.98912 6.04482,6.4527 26.04544,24.99991 31.96136,28.31351 17.22113,9.6456 50.97771,17.74146 74.50966,17.87126 7.57462,0.0419 11.0746,0.18145 13.02763,1.16066 -3.77759,4.70681 -7.52331,9.50683 -11.17503,14.28595 -7.7904,2.4789 -17.0328,3.83442 -27.59004,3.44785 -25.20345,-7.9153 -47.04313,-18.22862 -58.48946,-27.87892 -5.73111,-4.8317 -20.40631,-23.61637 -26.72912,-34.21187 -2.43331,-3.6468 -3.97158,-6.18178 -7.02179,-9.55238 -1.0638,-1.0239 -2.6769,-0.92593 -2.9838,-1.64021 -1.22767,-2.85705 6.4e-4,-5.21735 1.34566,-5.11752 z m 102.21753,6.81044 c -1.28441,0 -1.65027,0.98017 -0.71468,1.91512 0.66365,0.66404 1.9606,-0.0863 1.9606,-1.13378 0,-0.42984 -0.56056,-0.78134 -1.24592,-0.78134 z m 15.25178,1.17822 c 2.91525,0.12337 5.77139,0.31254 8.5416,0.59789 4.35188,0.44824 5.54392,7.16886 8.57209,10.87789 -4.70194,0.58749 -8.73491,0.30127 -12.47883,-0.10438 -0.0779,-0.26234 -0.16671,-0.51806 -0.24753,-0.77877 1.65825,-0.27644 3.29875,-1.03302 1.25006,-2.45979 -0.96383,-0.6712 -1.7963,-1.0324 -2.58228,-1.40354 -0.90139,-2.36712 -1.9139,-4.63789 -3.05511,-6.7293 z m 15.81661,0.90072 c 6.68349,0.48014 13.33598,1.01245 20.39875,0.84956 2.72438,3.78269 5.41555,7.45382 7.92872,10.82104 -7.40375,-0.2963 -9.60676,-0.38193 -19.53163,-0.78548 -3.04832,-3.66464 -6.03751,-7.34867 -8.79584,-10.88512 z m 47.81155,0.34416 c 0.60325,1.6044 1.04938,3.72732 0.79892,5.92987 -2.21111,1.77241 -3.99067,3.65391 -5.35471,5.99602 -2.22966,-0.0899 -5.56724,-0.22479 -7.71839,-0.31057 -2.45136,-3.23292 -7.21124,-7.41575 -10.05779,-11.32438 7.41139,0.56858 14.82288,1.13083 22.33197,-0.29094 z m -182.2328,0.29559 h 5.1e-4 c 0.022,0.016 0.038,0.03 0.061,0.046 1.55691,2.3081 4.29966,7.60159 5.99757,10.25519 4.76581,7.4472 21.04643,29.33342 26.25834,33.67082 15.17214,12.6263 46.88403,26.74632 69.99728,31.16812 5.65522,1.08197 8.96491,1.78246 11.01483,2.6293 -3.9107,5.27568 -6.81171,9.30399 -8.86871,12.40492 -11.81283,2.09272 -26.53309,1.19649 -43.25782,-4.71082 -16.24104,-5.7362 -32.32206,-16.21532 -42.45839,-29.36152 -1.2331,-1.7992 -2.35182,-3.5517 -3.28662,-5.2219 -3.66101,-6.5413 -10.77633,-29.29203 -12.95993,-41.43623 -0.8274,-3.5613 -1.38223,-6.21947 -2.49804,-9.44387 z m 141.74742,0.43253 c -0.26702,-0.0268 -0.53831,-0.0157 -0.80564,0.0357 -0.35642,0.0684 -0.70567,0.20767 -1.02629,0.4222 -1.28212,0.8582 -1.62594,2.5933 -0.76791,3.87573 1.2173,1.81921 2.57136,3.28196 4.37027,4.1274 1.79881,0.84538 3.76561,0.92065 5.78466,0.67076 1.53143,-0.18967 2.61894,-1.58482 2.42931,-3.11609 -0.11119,-0.89786 -0.65021,-1.68616 -1.44642,-2.11564 -0.50821,-0.2793 -1.0939,-0.38529 -1.66967,-0.31419 -1.47812,0.183 -2.1853,0.0701 -2.72128,-0.1819 -0.53592,-0.25206 -1.17783,-0.7957 -2.10271,-2.17816 -0.48279,-0.72122 -1.24327,-1.1453 -2.04432,-1.22577 z m 27.38954,1.76941 c -0.3853,0.0129 -0.81934,0.14324 -1.32705,0.42943 -1.11918,1.06255 -1.16498,2.83117 -0.10232,3.95014 3.12299,3.71616 5.8724,4.67943 10.74198,2.80293 1.43859,-0.55828 3.66304,-3.97374 0.19482,-3.34605 -6.49953,1.73939 -6.81033,-3.92657 -9.50743,-3.83645 z m -183.60068,5.45703 c -0.5858,0.1242 -1.08805,1.74921 -1.34565,4.66431 0.7511,13.6395 0.90328,28.65963 3.76359,42.54883 3.75831,18.9381 17.61776,36.18574 32.84399,49.00114 15.22653,12.8155 32.64998,20.50826 45.37811,19.74866 5.14071,-0.3065 3.45134,-1.60153 -1.24127,-2.21743 -12.52273,-1.6436 -27.23416,-7.73864 -42.0517,-20.21014 -14.81683,-12.4704 -27.35339,-30.48004 -30.90509,-48.37224 -1.14351,-7.0758 -4.58576,-40.82438 -4.58576,-40.82438 -0.60031,-3.0868 -1.27032,-4.46325 -1.85622,-4.33875 z m 128.19889,0.41961 c -0.45681,0 -0.83044,0.37385 -0.83044,0.83044 0,0.45721 0.37363,0.83096 0.83044,0.83096 0.45653,0 0.83044,-0.37375 0.83044,-0.83096 0,-0.45659 -0.37391,-0.83044 -0.83044,-0.83044 z m -5.84822,5.11803 c -0.55241,0.10184 -0.79685,0.58838 -0.79685,1.52704 0,1.25075 0.43393,1.69911 1.45418,1.50224 0.79922,-0.15385 1.45314,-0.82958 1.45314,-1.50224 0,-0.67284 -0.65392,-1.34942 -1.45314,-1.50327 -0.25506,-0.0491 -0.47319,-0.0577 -0.65733,-0.0238 z m 28.18226,1.24437 c 1.70542,-0.053 3.41128,-0.0656 5.0984,0.003 1.85403,5.05969 8.36656,9.47684 11.84424,13.73146 -1.5167,1.716 -3.08375,3.50579 -4.76612,5.47099 -3.74387,-0.22728 -8.05016,-1.28546 -15.28537,-2.07843 -2.68499,-1.89069 -5.06548,-4.06236 -6.99803,-6.42596 -0.20735,-3.36487 -0.6931,-6.81004 -1.42988,-10.21282 3.69497,-0.0628 7.59931,-0.36588 11.53676,-0.48834 z m 9.38444,0.29042 c 8.0812,0.32658 13.58216,1.36393 18.78232,1.8371 -0.92146,0.7053 -2.23213,1.9297 -3.8747,3.6065 -0.5978,-0.63226 -1.20632,-0.88935 -1.74201,-0.84749 -1.24864,0.0976 -2.10106,1.72767 -1.4981,3.49797 0.0733,0.19567 0.16676,0.35752 0.24494,0.54519 -0.59748,0.64505 -1.17941,1.26877 -1.82573,1.98282 -3.44914,-3.45565 -7.12048,-7.13912 -10.08672,-10.62209 z m 21.51445,2.05673 c 0.0446,0.002 0.0902,0.009 0.13488,0.0109 0.0882,0.11502 0.14068,0.17588 0.22789,0.28939 -0.12527,-0.10487 -0.24964,-0.20881 -0.36277,-0.30024 z m 7.44141,0.30437 c 0.20637,0.008 0.64662,0.0258 1.05988,0.0424 -0.0835,0.31589 -0.17342,0.61982 -0.24908,0.95033 -0.26468,-0.33189 -0.5725,-0.69155 -0.8108,-0.9927 z m -45.51144,1.37356 c -0.2268,-0.009 -0.45914,0.0131 -0.69763,0.0723 -1.27414,0.87002 -0.31283,2.40759 0.55707,3.68194 2.84555,4.62764 3.82615,8.18997 9.3617,8.46047 4.13513,-0.46861 8.6948,-3.11538 0.37208,-4.42144 -4.00287,-0.26493 -6.1912,-7.65142 -9.59322,-7.79332 z m 36.2474,4.38784 c 2.00518,0 26.62603,28.15659 50.40261,57.64041 l 14.70401,18.23403 -3.14709,3.32952 c -7.17072,7.58629 -23.55099,16.35622 -34.80356,18.634 -17.92796,3.62929 -31.64271,2.36818 -47.94178,-4.40748 -12.48894,-5.19171 -19.2843,-9.0085 -27.18232,-15.26729 l -6.28489,-4.98057 1.72755,-2.92489 c 5.38184,-9.11014 51.09626,-70.25773 52.52547,-70.25773 z m -52.78541,0.51005 c -0.12018,0.0123 -0.23727,0.0505 -0.34364,0.11627 -1.02535,0.63356 -0.98674,2.64114 0.0636,3.29024 1.02026,0.63045 2.01584,-1.6554 1.25573,-2.88509 -0.22506,-0.36438 -0.61511,-0.55821 -0.97565,-0.52142 z m -6.94479,3.15485 c -0.0706,-10e-4 -0.13786,0.008 -0.20102,0.03 -0.37896,0.12877 -0.61547,0.66086 -0.61547,1.46399 0,1.07086 0.42035,1.65934 1.03818,1.45314 0.57122,-0.19003 1.0387,-0.84394 1.0387,-1.45314 0,-0.6092 -0.46748,-1.26362 -1.0387,-1.45365 -0.0772,-0.0258 -0.15111,-0.0388 -0.22169,-0.0403 z m -105.79923,2.65875 c -0.4958,-0.0186 -0.88635,0.47167 -0.81235,1.52807 0.1242,1.7793 1.41,7.6876 2.73471,8.1685 0.4576,0.1661 1.14665,-0.33596 1.09865,-1.44436 -0.092,-2.1004 -1.14654,-6.31389 -1.97094,-7.51789 -0.32261,-0.471 -0.71087,-0.72132 -1.05007,-0.73432 z m 96.07476,2.09496 c -0.33063,-0.0373 -0.75131,0.38617 -0.93431,0.93431 -0.18273,0.54822 0.11638,0.84712 0.66456,0.66456 1.07088,-0.35686 1.26347,-1.49613 0.26975,-1.59887 z m 18.45985,1.72341 c -1.25148,0 -1.70758,1.75372 -0.7152,2.74609 0.77566,0.77487 1.96112,-0.16136 1.96112,-1.54926 0,-0.65782 -0.56058,-1.19683 -1.24592,-1.19683 z m 11.57862,1.79214 c 1.63765,0.0687 3.04197,0.13379 5.03897,0.20981 1.17569,3.34039 3.91545,7.52765 6.9789,11.25512 -0.32333,0.39643 -0.64786,0.79717 -0.97255,1.19683 -2.1799,-0.28674 -5.17011,-0.51428 -9.50122,-0.83716 -0.20588,-0.0153 -0.40563,-0.0411 -0.61134,-0.0568 -0.23541,-1.17639 -1.17456,-2.12282 -2.43034,-2.24379 -0.46968,-0.0451 -0.3839,-0.0377 -0.53588,-0.0729 -0.0247,-0.12604 -0.11014,-0.41858 -0.1509,-0.60099 0.32029,-0.88476 0.63447,-1.80384 0.94826,-2.81999 0.57415,-1.85867 0.97293,-3.89275 1.2361,-6.03012 z m 11.4422,1.79162 c 2.53495,0.55431 5.07086,0.91146 7.5985,1.19011 -1.13684,1.35166 -2.25088,2.66584 -3.42718,4.08657 -1.41629,-1.77958 -2.83053,-3.53788 -4.17132,-5.27668 z m -28.92795,0.0568 c -0.0992,-0.004 -0.20782,0.0267 -0.32195,0.0971 -0.45735,0.2822 -0.83147,0.86518 -0.83147,1.29501 0,0.42983 0.37412,0.78135 0.83147,0.78135 0.45653,0 0.82993,-0.58246 0.82993,-1.2945 0,-0.53448 -0.21026,-0.86584 -0.50798,-0.87901 z m -85.85368,1.96318 c -1.4071,-0.1646 0.17701,4.70453 1.57872,5.66943 1.6019,1.1027 5.09056,4.31539 7.28586,6.03839 2.19521,1.723 5.57662,0.55115 3.20342,-1.03405 -2.37321,-1.5851 -8.00838,-7.76444 -11.27269,-10.26914 -0.3324,-0.255 -0.59431,-0.38063 -0.79531,-0.40463 z m 37.41839,2.0128 c -0.15061,0.0168 -0.27218,0.0607 -0.36018,0.12971 -0.3519,0.2739 -0.16791,0.93533 0.8139,1.76113 13.67903,8.4796 24.12292,10.03153 39.12785,10.84223 1.63201,0.0882 3.34368,-1.95739 -1.09813,-2.50889 -16.22204,-2.0143 -22.56242,-4.24473 -36.45255,-9.54153 -0.8643,-0.5355 -1.57919,-0.73265 -2.03089,-0.68265 z m 101.11786,0.8046 c -2.16596,-0.27472 -6.34877,5.71214 -5.41466,8.14679 0.69254,1.80483 3.03551,1.84465 4.50257,0.077 1.63621,-1.9713 2.51115,-7.34377 1.3162,-8.08219 -0.12436,-0.0769 -0.25971,-0.12328 -0.40411,-0.1416 z m 14.06478,4.19458 c -0.44848,-0.0713 -0.93228,0.0678 -1.41335,0.46715 -1.70268,1.41235 -1.78793,5.10407 -0.15658,6.73551 h 5.1e-4 c 1.79635,1.79635 3.26047,0.904 3.62769,-2.21072 0.31472,-2.66872 -0.71284,-4.77801 -2.05827,-4.99194 z m -59.58241,6.40116 c -1.37531,0.1377 -2.77397,0.22025 -2.56057,1.48725 0.2134,1.267 2.25238,0.7851 4.24418,0.4408 1.99171,-0.3443 -0.33211,-1.96905 -1.68361,-1.92805 z m -71.3047,2.79828 c -0.1511,-0.011 -0.27875,0.011 -0.37775,0.062 -0.3959,0.2051 -0.33608,0.88879 0.47852,1.87999 11.90193,10.8333 16.41011,11.8825 31.03894,15.8998 1.576,0.4327 3.55554,-1.05912 -0.62167,-2.66702 -14.15943,-5.4503 -15.95558,-6.39039 -28.64631,-14.13299 -0.7519,-0.684 -1.41833,-1.00879 -1.87173,-1.04179 z m 207.92995,2.78484 c 0.49598,9.6e-4 1.01403,0.0261 1.55494,0.076 -2.20469,7.23888 7.08421,8.01725 10.51822,6.06423 2.79642,-1.06978 -0.054,-3.7899 1.70119,-3.58634 1.23882,0.2062 3.55852,0.65861 5.46633,2.20142 18.05511,19.10377 -28.87639,35.43648 -29.08814,8.26926 -0.0595,-7.65256 2.40773,-13.03888 9.84746,-13.02453 z m -242.36712,0.14521 c -0.4366,-0.009 -0.66493,0.35492 -0.75293,1.15962 -0.1656,1.5148 1.07644,2.45213 3.02204,3.31763 1.9457,0.8656 0.66261,-1.92317 -0.57929,-3.63027 -0.7568,-0.541 -1.30451,-0.83698 -1.68982,-0.84698 z m 246.82214,0.40308 c 1.24882,0.0931 4.01334,0.14181 3.44837,0.7214 -1.31119,1.91675 -3.66361,0.64052 -3.44837,-0.7214 z m 48.10353,3.34398 c 0.79037,0.0716 0.29219,1.14546 0.21135,1.96267 -1.36656,-0.2338 -2.36643,-1.35542 -3.63853,-1.36322 -2.42528,0.20908 -2.49453,3.10554 -0.94878,3.95789 3.46773,2.09495 5.96585,3.93133 10.89184,0.6935 1.00682,-0.56959 0.94209,-1.40742 0.21239,-2.30477 -0.81393,-1.00061 -2.43104,-0.59184 -3.35225,-0.33486 0.0344,-0.38065 0.10613,-2.02618 0.13591,-2.40451 2.73547,0.56749 6.51227,1.96142 8.33747,3.66076 2.63029,2.44898 3.91417,5.82109 1.25781,12.07885 -5.03812,11.86905 -23.71992,10.50848 -27.00197,-0.0481 -4.66352,-10.73693 5.1914,-15.36521 13.47204,-15.86414 0.17048,-0.0343 0.30981,-0.0444 0.42272,-0.0341 z m -124.30973,0.55914 c -1.27964,0 -2.45265,4.53698 -1.68775,6.52983 v 5.2e-4 c 0.75942,1.97936 3.55533,1.9392 4.32325,-0.062 0.70789,-1.8451 -1.17583,-6.46834 -2.6355,-6.46834 z m -22.64203,1.5074 c -2.30895,0 -3.74145,4.86591 -2.3089,7.78867 1.83143,3.73553 5.11182,0.57653 4.62866,-4.45709 -0.24501,-2.54902 -0.78948,-3.33158 -2.31976,-3.33158 z M 162.837,481.52215 c -0.4428,0.0524 -0.62766,0.71344 -0.21446,1.92804 7.32112,14.3322 15.45682,21.06268 27.87944,29.51758 1.35111,0.9196 3.87391,0.0544 0.3576,-2.71508 -12.84162,-10.1144 -17.11406,-15.30267 -26.26248,-27.02057 -0.61681,-1.2071 -1.317,-1.76297 -1.7601,-1.70997 z m 178.34622,2.92281 c -0.30483,-0.0168 -0.59857,0.0225 -0.87126,0.12713 -1.69044,0.64864 -1.289,3.82318 0.81597,6.45077 1.49101,1.86132 4.1892,1.04958 4.53615,-1.36529 0.3223,-2.24027 -2.34706,-5.09483 -4.48086,-5.21261 z m -76.17571,0.20671 c -0.51127,0.68037 -1.06131,1.38328 -1.56321,2.05724 -0.7973,1.07061 -1.3671,1.8434 -2.1022,2.83135 -0.20255,0.0572 -0.38684,0.12455 -0.5917,0.18035 -1.66001,-0.4618 -3.44861,-0.94381 -5.87922,-1.58491 -1.2692,-0.3348 -2.52454,-0.6872 -3.78324,-1.0356 5.02286,-0.39988 9.71419,-1.22517 13.91957,-2.44843 z m 21.04419,1.83968 c -0.70926,-0.0528 -1.69435,0.28079 -2.90318,1.0728 -3.76289,2.46552 -4.94784,5.19485 -3.07061,7.07192 2.06132,2.06156 3.86457,1.1902 6.09058,-2.94349 1.66825,-3.09733 1.44359,-5.08504 -0.11679,-5.20123 z m -101.91419,7.38146 c 6.87561,4.042 14.24861,7.35438 21.58783,9.94668 15.25731,5.3887 30.67406,7.09101 42.16435,4.74752 -0.82515,1.4172 -1.41647,2.62539 -1.79472,3.67522 -7.00362,1.55179 -15.74734,1.97312 -25.36124,0.88264 -6.81282,-0.7727 -13.19627,-2.08407 -19.18178,-3.89847 -6.28702,-5.1075 -12.14363,-10.27479 -17.41444,-15.35359 z m 132.08754,2.06086 c -1.38818,-0.0593 -2.95534,4.75267 -2.19418,6.73654 v -0.0109 c 0.80387,2.10567 4.30658,2.11742 5.10822,0.0284 0.70193,-1.82912 -1.39481,-6.68891 -2.91404,-6.75411 z m 20.68298,8.60619 c -1.94678,0.39887 -2.01411,6.97366 -0.0966,9.28419 l 0.001,-0.002 c 1.63549,1.97217 3.93416,1.95485 4.69739,-0.0341 0.91099,-2.37383 -2.70349,-9.63794 -4.60179,-9.24853 z m -41.13754,0.76016 c -1.48504,0 -4.36966,5.05703 -3.77238,6.61355 0.89913,2.34314 3.60216,1.61809 4.69635,-1.25935 1.07225,-2.82049 0.6351,-5.3542 -0.92397,-5.3542 z m -43.45368,9.67073 c 0.99803,-0.1544 3.78725,1.19147 8.25634,4.16977 21.82747,14.54597 32.247,18.52873 54.61631,20.87831 12.88201,1.35256 15.75531,1.36788 22.98671,0.11989 12.46437,-2.15102 29.87076,-11.87959 36.27324,-20.27318 2.95091,-3.86913 4.06617,-4.30319 4.97437,-1.93683 0.81325,2.11945 -4.26314,8.28039 -11.52126,13.98261 -6.54315,5.1405 -18.09833,10.95514 -26.2046,13.18679 v 10e-4 c -7.93579,2.18474 -25.96972,2.65556 -35.11207,0.91726 -17.89798,-3.40307 -39.26788,-13.56248 -49.00011,-23.2947 -4.87419,-4.87433 -6.55211,-7.55243 -5.26893,-7.75095 z" font-family="sans-serif" font-weight="400" overflow="visible" style="line-height:normal;font-variant-ligatures:normal;font-variant-position:normal;font-variant-caps:normal;font-variant-numeric:normal;font-variant-alternates:normal;font-variant-east-asian:normal;font-feature-settings:normal;font-variation-settings:normal;text-indent:0;text-align:start;text-decoration-line:none;text-decoration-style:solid;text-decoration-color:#000;text-transform:none;text-orientation:mixed;white-space:normal;shape-padding:0;shape-margin:0;inline-size:0;isolation:auto;mix-blend-mode:normal;solid-color:#000;solid-opacity:1" transform="translate(-2511.9543,-2030.6768) translate(2390.8903,1758.6718)"/>
    </g>
</svg>