<?xml version="1.0" ?><svg xmlns="http://www.w3.org/2000/svg" width="165.72353mm" height="257.58414mm" viewBox="0 0 165.72353 257.58414">
    <path d="m -2306.4156,-19.801474 c -2.7348,-0.03752 -5.9237,1.487248 -8.9818,3.888652 -4.8929,3.842244 -11.9925,12.3469464 -13.6235,19.7724361 -1.631,7.4254899 0.9591,68.2542319 0.9591,68.2542319 l -35.2102,6.302974 -8.7783,-51.849031 -7.4833,-20.377051 c 0,0 -5.9483,-8.1161662 -7.5313,-7.900293 -1.583,0.2158467 -19.188,11.829252 -19.188,11.829252 l -8.2031,16.750399 4.8452,48.222379 -0.3359,11.008631 -16.598,42.092524 c 0,0 8.1072,36.69529 10.6976,43.73221 2.5904,7.03692 23.1696,52.10793 23.1696,52.10793 0,0 43.8926,6.08736 59.339,6.82129 15.4464,0.7339 29.3099,-2.54713 29.3099,-2.54713 l 37.8002,-56.64099 c 0,0 -2.734,-31.1263 -2.3983,-37.25664 0.3358,-6.13035 -6.0922,-30.17722 -5.5645,-38.984182 0.5277,-8.806955 -10.7451,-35.745622 -10.7451,-35.745622 0,0 -0.8157,-40.581627 -1.5353,-48.611503 -0.7195,-8.0298763 -12.4723,-25.514035 -15.6383,-28.967741 -1.1873,-1.295149 -2.6647,-1.880213 -4.3057,-1.902726 z m 1.0615,18.4464193 c 3.9762,-0.015868 4.8701,5.1626884 5.5666,14.9758297 0.7188,10.129695 2.7698,47.934542 2.7698,47.934542 l -15.6207,2.366781 c 0,0 -3.4364,-15.084346 -3.6644,-21.064347 -0.2279,-5.980001 -0.6139,-35.9745488 -0.6139,-35.9745488 0,0 6.8554,-7.85778473 11.1683,-8.2206869 0.1348,-0.011341 0.266,-0.017058 0.3943,-0.01757 z m -86.6909,20.4711017 c 0.049,0.0013 0.097,0.0049 0.1432,0.01085 2.9805,0.378672 4.9788,14.105775 6.3288,17.056324 1.35,2.950522 8.3979,40.20323 8.3979,40.20323 0,0 -6.8722,-0.710009 -11.5708,-1.214913 -4.6986,-0.504902 -11.4314,-3.455086 -11.4314,-3.455086 l -0.8413,-0.663008 c 0,0 -3.2258,-37.520803 -2.3316,-40.329322 0.8801,-2.764662 8.2327,-11.691005 11.3052,-11.608077 z" fill="#FFFFFF" paint-order="fill markers stroke" transform="translate(72.794,113.69037) translate(2355.9788,-90.91737)"/>
    <path d="m -2331.9865,234.29329 c -7.4088,-0.40024 -16.1644,-1.22453 -19.4572,-1.83176 -3.2925,-0.60722 -10.2524,-1.5795 -15.4657,-2.16062 -5.2136,-0.58112 -13.4623,-1.59629 -18.3309,-2.25597 -8.671,-1.1749 -8.9004,-1.27612 -11.2253,-4.95915 -1.3053,-2.06788 -2.3733,-3.9472 -2.3733,-4.17627 0,-0.2291 -2.4127,-5.51385 -5.3616,-11.74395 -2.9489,-6.23009 -5.7029,-12.44997 -6.1203,-13.82195 -0.4175,-1.37194 -2.7343,-6.96409 -5.1489,-12.42692 -4.4623,-10.09649 -13.3031,-43.56908 -13.3031,-50.36745 0,-5.91801 3.027,-15.11747 9.6129,-29.21502 6.0174,-12.88088 6.5311,-14.52435 7.0524,-22.57212 0.3298,-5.08979 0.085,-10.90734 -0.5926,-14.06562 -1.9745,-9.20616 -4.0992,-26.07144 -4.0992,-32.53677 0,-11.76299 10.1591,-27.2055798 21.3943,-32.52074981 3.3248,-1.57292999 7.1958,-2.86021999 8.6023,-2.86063999 3.5876,-7.7e-4 7.215,4.17567999 11.2681,12.97456 5.3052,11.5164298 7.4543,20.0054798 9.5973,37.9123198 1.0839,9.05502 2.2738,18.86086 2.6443,21.79078 0.3799,3.00328 1.2581,5.55133 2.0133,5.8411 1.964,0.75369 13.3528,-1.4142 22.3333,-4.25117 l 7.8248,-2.47186 -0.4356,-3.22039 c -2.64,-19.51577 -3.2889,-50.97032 -1.2595,-61.0748998 0.7097,-3.53332001 2.5674,-7.8885 4.7498,-11.13514 3.8961,-5.7961302 13.509,-13.6326402 18.9525,-15.4501702 6.4321,-2.14769 11.7475,2.95709 19.5016,18.7285702 5.9458,12.09377 6.9219,18.0064598 6.9768,42.2630098 l 0.048,21.45264 3.6565,9.47907 c 5.1791,13.42719 6.6929,20.50007 7.7943,36.41961 0.6276,9.07007 2.1939,19.56813 4.4663,29.93392 2.6971,12.30513 3.503,18.26944 3.5157,26.0187 l 0.019,6.95651 c 0.2653,2.58136 -0.043,3.1749 -1.3938,5.19967 l -15.9683,23.93771 c -9.5537,14.32195 -17.9762,27.30411 -18.7169,28.84921 -1.6286,3.39834 -9.5894,7.4761 -15.2991,7.83679 -2.1951,0.13867 -10.0527,-0.0753 -17.4614,-0.47558 z m 22.0346,-7.21751 c 4.162,-0.9982 4.7885,-1.55509 6.9633,-6.18929 2.2748,-4.84799 15.8583,-25.66028 28.1553,-43.13964 l 3.776,-5.36708 c 2.0903,-2.54165 1.932,-2.83224 1.932,-5.95824 v -7.13393 c 0,-8.37699 -0.6794,-13.19433 -3.5536,-25.3129 -1.9527,-8.23184 -3.8113,-18.44678 -4.1303,-22.69991 -0.3191,-4.2531 -0.9207,-7.73294 -1.3367,-7.73294 -0.4164,0 -1.6408,1.45929 -2.7215,3.24285 -7.5312,12.43043 -9.2079,14.95778 -9.2079,13.87841 0,-2.12558 2.5623,-7.46478 7.4322,-15.48743 5.0484,-6.194046 4.4399,-9.300032 3.0847,-16.67425 -0.8995,-4.89427 -2.2438,-10.35973 -2.9877,-12.14553 -0.7438,-1.78576 -1.6662,-5.34944 -2.0497,-7.91924 -0.4141,-2.77627 -1.3178,-4.91059 -2.2265,-5.25927 -0.8412,-0.32281 -3.9793,0.32973 -6.9735,1.45006 -7.1643,2.68051 -19.3626,3.77762 -20.832,1.87362 -1.7033,-2.20686 -4.4539,-32.86117 -4.5605,-50.82384 -0.1131,-19.1134098 0.5023,-21.2662198 8.3322,-29.12711 5.4093,-5.43065 5.0869,-5.93444 -1.225,-1.91373 -5.4744,3.48731 -11.5854,10.1680202 -13.7166,14.99529019 -2.0181,4.57072001 -2.6757,29.74723981 -1.4374,55.01809981 0.4706,9.60382 0.6927,17.96191 0.4935,18.57356 -1.1081,3.40389 -18.4691,8.35057 -31.6829,9.02746 -18.9047,0.96842 -43.4041,-5.19699 -43.4041,-10.92283 0,-1.31439 -0.8372,-5.71694 -1.8602,-9.78345 -2.7198,-10.81162 -3.6973,-36.22244 -1.5876,-41.27187 5.1454,-12.3142098 11.5857,-15.9802798 21.0945,-12.0073298 1.9873,0.83039 3.7488,1.37446 3.914,1.20908 0.8445,-0.84456 -4.9478,-8.70259001 -6.401,-8.68376001 -6.5933,0.0854 -16.8663,9.56070981 -22.2731,20.54296981 l -3.1636,6.4261 0.6022,15.19118 c 0.3312,8.35516 1.2957,19.00777 2.1437,23.67245 0.8479,4.66472 1.542,11.31896 1.5428,14.7872 9e-4,5.25973 0.4673,6.99789 2.8098,10.47686 5.2812,7.84375 8.0884,13.37217 10.622,20.92019 2.8927,8.61692 3.1127,10.69023 1.1348,10.69023 -0.8717,0 -2.2209,-2.72769 -3.5779,-7.23404 -2.1208,-7.0432 -10.8964,-25.11895 -11.7704,-24.24489 -0.2404,0.24013 -1.9844,3.94149 -3.8758,8.22496 -10.9572,24.81587 -11.6442,28.38783 -8.4348,43.85992 4.1229,19.87651 5.2823,23.92888 9.8046,34.27291 7.1298,16.30778 18.2166,40.18571 19.7485,42.53187 1.5729,2.40957 5.9043,3.39575 27.9426,6.36213 15.2691,2.05521 44.5284,1.94856 53.4653,-0.19491 z m -20.8439,-14.54626 c 5.3205,-7.21418 15.2194,-19.1859 15.864,-19.1859 0.4333,0 1.0773,0.46822 1.4308,1.04046 1.1269,1.82322 -14.5504,19.91331 -17.2575,19.91331 -1.109,0 -1.1155,-0.30603 -0.037,-1.76787 z m -61.3313,-28.43525 c -0.288,-0.75075 0.3476,-3.80358 1.4125,-6.78412 2.8448,-7.96283 5.8426,-21.34604 5.8601,-26.1621 0.028,-6.64573 1.7047,-7.89619 2.1442,-1.59556 0.8358,11.97995 -3.8551,34.94013 -7.2723,35.59581 -0.8916,0.17112 -1.8563,-0.30332 -2.1445,-1.05403 z m 30.5179,-5.52783 c 0.3306,-1.65317 -0.5341,-9.44406 -1.9217,-17.31308 -1.4886,-8.44167 -2.2825,-15.85404 -1.9363,-18.08005 0.3227,-2.07503 2.59,-8.22994 5.0385,-13.67761 2.4483,-5.44768 5.6961,-13.51566 7.2173,-17.92888 2.9025,-8.42142 4.8167,-10.64361 3.6896,-4.28322 -0.6887,3.88583 -6.5062,21.4092 -10.4546,31.49118 -3.6931,7.25501 -1.344,11.49678 -0.044,19.49145 2.607,16.03246 2.5241,22.41073 -0.2989,22.94686 -1.6159,0.30685 -1.8037,-0.0784 -1.29,-2.64665 z m 61.0685,-4.15639 c -0.3668,-0.59323 -0.3527,-8.13783 0.031,-16.76578 0.8403,-18.89483 -0.3711,-29.77705 -4.9958,-44.88239 -4.0481,-13.22134 -4.9353,-17.2024 -3.8342,-17.2024 0.4698,0 3.1754,6.84739 6.0126,15.21641 3.7372,11.02254 5.4486,17.8869 6.21,24.90561 1.1515,10.61315 1.2513,26.43993 0.215,34.13412 -0.6398,4.75267 -2.2698,6.81031 -3.639,4.59443 z m -67.3666,-100.4885 c 0,-5.76504 -4.4032,-39.99999 -5.9438,-46.2123 -3.0106,-12.13975 -3.2666,-12.54079 -9.4989,-14.87261 -3.0723,-1.14946 -6.442,-2.08994 -7.4885,-2.08994 -2.6842,0 -6.3515,3.65249 -9.5176,9.47908 l -2.7107,4.98899 2.5797,-3.10804 c 1.4188,-1.70943 4.0062,-3.69902 5.7499,-4.42131 2.9152,-1.20741 3.3174,-1.13178 4.9944,0.93898 3.7261,4.60175 13.8532,40.81537 13.8532,49.53853 0,4.81329 1.7528,7.44059 4.9642,7.44059 2.1654,0 3.0181,-0.47523 3.0181,-1.68197 z m -12.9826,-1.56085 c -0.071,-7.80449 -8.4575,-46.58197 -10.9451,-50.60682 -1.3429,-2.17286 -3.3955,-0.57331 -6.5324,5.09053 -2.8647,5.17168 -2.9659,5.79888 -2.9574,18.3263 0,7.13424 0.6185,15.656007 0.8677,18.99108 0.4651,6.225115 1.3411,6.145584 6.976,7.6181 7.6989,2.01184 12.6062,2.2382 12.5912,0.58081 z m 79.2849,-12.83704 c 1.3803,-1.38012 1.49,-6.38192 0.5892,-26.82542 -0.9368,-21.26163 -2.2412,-31.3227398 -4.2197,-32.54548981 -0.5643,-0.34868 -2.885,1.22422001 -5.1576,3.49534001 -5.6033,4.0905274 -4.2773,9.0950858 -4.4669,15.5726998 -0.1838,6.29385 0.3773,17.96494 1.2473,25.93574 0.87,7.97081 1.5822,15.09932 1.5822,15.84115 0,1.10008 0.9046,1.14502 4.9065,0.24381 2.6985,-0.60777 5.1822,-1.38074 5.519,-1.71772 z m 10.3062,-4.43154 c 2.1541,-1.50881 2.2174,-2.0756 2.2174,-19.79636 0,-14.87957 -0.362,-19.65898 -1.964,-25.9227798 -2.0404,-7.97839 -8.8082,-22.1749302 -11.909,-24.9809902 -1.6775,-1.51828 -2.0475,-1.18434 -6.2395,5.6352502 -4.8928,7.95907 -6.1814,10.74147999 -4.9748,10.74147999 0.4358,0 1.8469,-1.12251 3.1358,-2.49447999 1.3653,-1.45315 3.456,-2.49451 5.0083,-2.49451 6.6937,0 8.8613,8.6785 9.6575,38.6646598 0.4121,15.52787 0.9292,22.201 1.72,22.201 0.622,0 2.1286,-0.69898 3.3483,-1.55327 z" transform="translate(72.794,113.69037) translate(2355.9788,-90.91737)" fill="#9bafff"/>
</svg>